<?xml version="1.0" encoding="utf-8"?>
<!-- Generator: Adobe Illustrator 18.1.1, SVG Export Plug-In . SVG Version: 6.00 Build 0)  -->
<svg version="1.1" id="Layer_1" xmlns="http://www.w3.org/2000/svg" xmlns:xlink="http://www.w3.org/1999/xlink" x="0px" y="0px"
	 viewBox="0 0 237.834 113.9" enable-background="new 0 0 237.834 113.9" xml:space="preserve">
<g>
	<defs>
		<rect id="SVGID_1_" x="0" y="4.116" width="212.005" height="110.404"/>
	</defs>
	<clipPath id="SVGID_2_">
		<use xlink:href="#SVGID_1_"  overflow="visible"/>
	</clipPath>
	<path clip-path="url(#SVGID_2_)" fill="#FFFFFF" d="M4.834,19.549c0.607,0.504,1.119,0.749,1.565,0.749l0.051-0.001
		c0.384-0.017,0.854-0.114,1.396-0.29c0.523-0.168,0.946-0.261,1.257-0.274c0.361-0.016,0.582-0.088,0.694-0.227
		c0.065-0.08,0.089-0.179,0.071-0.288l-0.011-0.069l-0.065-0.028c-0.544-0.232-1.129-0.596-1.74-1.082
		c-0.594-0.473-0.996-1.315-1.195-2.501c-0.255-1.528-0.199-2.858,0.169-3.952c0.409-1.216,1.327-2.091,1.982-2.645
		c0.73-0.615,1.657-1.294,3.006-1.669c1.265-0.35,2.677-0.561,4.196-0.629c1.801-0.078,3.675,0.092,5.583,0.509
		c1.909,0.417,3.761,0.966,5.502,1.631c0.273,0.103,6.688,2.536,7.519,2.812c2.185,0.725,4.994,1.514,6.347,1.644
		c0.527,0.052,1.155,0.081,1.722,0.081c0.73,0,1.718-0.048,2.273-0.27c1.2-0.447,1.666-0.843,2.372-1.442
		c0.728-0.618,1.325-1.373,1.775-2.245c0.455-0.882,0.591-1.886,0.407-2.984c-0.084-0.503-0.313-0.985-0.68-1.433
		c-0.379-0.464-0.923-0.682-1.615-0.654c-0.523,0.023-1.018,0.122-1.472,0.295c-0.188,0.072-0.761,0.291-0.696,0.673
		c0.043,0.263,0.228,0.485,0.547,0.66c0.283,0.155,0.607,0.336,0.97,0.545c0.351,0.201,0.682,0.453,0.983,0.747
		c0.288,0.285,0.478,0.696,0.566,1.221c0.119,0.708-0.183,1.277-1.01,1.901c-0.722,0.546-1.44,0.919-2.589,0.969
		c-1.562,0.072-3.289-0.229-5.137-0.886c-1.962-0.697-6.804-2.463-8.827-3.255c-2.047-0.801-4.2-1.538-6.4-2.19
		c-2.204-0.653-4.43-0.934-6.626-0.839c-2.388,0.104-4.521,0.731-6.34,1.862C9.576,7.122,8.063,8.423,6.889,9.862
		c-1.171,1.437-2.045,2.853-2.596,4.209c-0.563,1.386-0.786,2.363-0.682,2.985C3.802,18.196,4.213,19.035,4.834,19.549
		 M14.402,35.714c2.543-2.144,4.52-5.13,5.933-8.959c0.744-1.99,1.39-4.121,1.935-6.393c2.212-9.472,2.758-9.286,3.048-9.484
		c0.209-2.035-1.97-2.073-2.601-1.143c-2.738,4.705-4.56,13.715-4.88,14.757c-0.322,1.043-0.637,2-0.945,2.874
		c-0.308,0.873-0.652,1.691-1.033,2.456c-0.763,1.528-1.504,2.809-2.226,3.844c-0.721,1.036-1.496,1.87-2.321,2.503
		c-0.826,0.633-1.739,1.087-2.74,1.362c-3.447,0.876-6.949-1.422-7.119-1.579c-0.171-0.158-0.395-0.239-0.672-0.244
		c-0.369-0.006-0.594,0.128-0.672,0.404c-0.079,0.277-0.115,0.446-0.108,0.508c0.018,0.462,0.386,0.823,1.106,1.083
		c0.719,0.258,3.197,1.059,4.488,1.14C9.665,39.099,11.859,37.859,14.402,35.714 M102.136,34.158
		c-1.092,0.852-2.07,1.277-2.934,1.277c-0.356,0-0.692-0.146-1.009-0.439c-0.319-0.291-0.477-0.844-0.477-1.658
		c0-0.381,0.057-0.869,0.172-1.467c0.114-0.597,0.279-1.219,0.495-1.867c0.216-0.648,0.458-1.29,0.724-1.925
		c0.267-0.635,0.553-1.181,0.857-1.639c0.559-0.838,1.106-1.537,1.639-2.096c0.533-0.558,1.073-1.01,1.62-1.353
		c0.546-0.343,1.111-0.591,1.696-0.743c0.584-0.152,1.206-0.229,1.867-0.229c0.101,0,0.268,0.026,0.496,0.077
		c0.228,0.051,0.457,0.133,0.686,0.247c0.228,0.115,0.432,0.248,0.61,0.401c0.177,0.152,0.291,0.318,0.343,0.495
		c-0.204,0-0.414,0.095-0.629,0.286c-0.216,0.191-0.433,0.419-0.648,0.686c-0.216,0.267-0.407,0.552-0.571,0.857
		c-0.166,0.305-0.287,0.56-0.363,0.763c-0.254,0.584-0.49,1.226-0.705,1.924c-0.216,0.699-0.515,1.455-0.896,2.268
		C104.22,31.929,103.228,33.307,102.136,34.158 M66.525,35.473c-0.533,0.025-1.016-0.013-1.448-0.115
		c-0.433-0.101-0.801-0.304-1.105-0.61c-0.305-0.304-0.547-0.717-0.725-1.238c-0.177-0.52-0.266-1.175-0.266-1.963
		c0-1.092,0.165-2.026,0.495-2.801c0.33-0.775,0.73-1.416,1.201-1.924c0.469-0.509,0.972-0.883,1.505-1.125
		c0.533-0.241,1.016-0.362,1.448-0.362c0.686,0,1.188,0.21,1.506,0.629c0.317,0.419,0.476,1.188,0.476,2.306
		c0,0.28-0.038,0.66-0.114,1.143c-0.077,0.483-0.204,1.01-0.382,1.582c-0.177,0.571-0.399,1.156-0.666,1.753
		c-0.267,0.597-0.604,1.162-1.01,1.696C67.136,34.876,66.831,35.219,66.525,35.473 M64.887,36.731
		c-0.178,0.101-0.375,0.184-0.59,0.247c-0.216,0.064-0.438,0.095-0.667,0.095c-0.509,0-0.972-0.253-1.391-0.762
		c-0.419-0.508-0.605-1.205-0.553-2.096l0.115-0.038c0.279,0.61,0.691,1.143,1.238,1.601c0.546,0.457,1.34,0.661,2.382,0.61
		C65.268,36.515,65.091,36.629,64.887,36.731 M49.601,30.023c-0.889,1.906-1.88,3.284-2.973,4.135
		c-1.093,0.852-2.07,1.277-2.934,1.277c-0.356,0-0.693-0.146-1.01-0.439c-0.318-0.291-0.477-0.844-0.477-1.658
		c0-0.381,0.058-0.869,0.172-1.467c0.114-0.597,0.279-1.219,0.495-1.867c0.216-0.648,0.458-1.29,0.724-1.925
		c0.267-0.635,0.553-1.181,0.858-1.639c0.559-0.838,1.105-1.537,1.639-2.096c0.533-0.558,1.073-1.01,1.62-1.353
		c0.546-0.343,1.11-0.591,1.695-0.743c0.585-0.152,1.207-0.229,1.868-0.229c0.101,0,0.267,0.026,0.495,0.077
		c0.229,0.051,0.458,0.133,0.686,0.247c0.23,0.115,0.432,0.248,0.611,0.401c0.177,0.152,0.291,0.318,0.342,0.495
		c-0.203,0-0.413,0.095-0.629,0.286c-0.216,0.191-0.432,0.419-0.648,0.686c-0.216,0.267-0.407,0.552-0.571,0.857
		c-0.166,0.305-0.286,0.56-0.362,0.763c-0.254,0.584-0.49,1.226-0.705,1.924C50.28,28.454,49.981,29.21,49.601,30.023
		 M66.582,17.332c0.8-1.626,1.569-2.992,2.306-4.097c0.737-1.105,1.442-1.95,2.115-2.535c0.673-0.584,1.29-0.876,1.849-0.876
		c0.482,0,0.806,0.114,0.971,0.343c0.166,0.228,0.249,0.597,0.249,1.106c0,0.534-0.109,1.067-0.324,1.6
		c-0.216,0.533-0.534,1.086-0.954,1.658c-0.419,0.571-0.933,1.188-1.543,1.848c-0.61,0.661-1.309,1.385-2.097,2.172
		c-1.092,1.093-2.07,1.976-2.934,2.649c-0.864,0.673-1.537,1.226-2.02,1.658C64.988,20.8,65.783,18.958,66.582,17.332
		 M122.025,27.602c-0.188-0.291-0.33-0.622-0.418-0.99c-0.089-0.368-0.134-0.819-0.134-1.353c0-1.168,0.324-2.102,0.972-2.801
		c0.648-0.699,1.43-1.049,2.345-1.049c0.127,0,0.278,0.026,0.456,0.077c0.179,0.051,0.35,0.159,0.516,0.324
		c0.165,0.166,0.305,0.406,0.419,0.724c0.115,0.318,0.172,0.731,0.172,1.238c0,0.357-0.052,0.768-0.153,1.239
		c-0.101,0.471-0.261,0.953-0.476,1.448c-0.217,0.496-0.47,0.985-0.763,1.467c-0.292,0.483-0.628,0.929-1.011,1.335
		c-0.457-0.305-0.844-0.584-1.161-0.839C122.471,28.169,122.217,27.895,122.025,27.602 M106.9,38.007
		c0.813-0.419,1.677-0.934,2.591-1.543c0.915-0.61,1.811-1.252,2.687-1.925c0.159-0.121,0.307-0.238,0.456-0.355
		c-0.068,0.121-0.136,0.241-0.193,0.374c-0.153,0.356-0.229,0.737-0.229,1.143c0,0.128,0.019,0.305,0.058,0.534
		c0.037,0.229,0.12,0.451,0.247,0.667c0.127,0.216,0.318,0.406,0.572,0.572c0.253,0.165,0.596,0.247,1.029,0.247
		c0.279,0,0.584-0.025,0.914-0.076c0.33-0.051,0.711-0.164,1.145-0.343c0.431-0.177,0.915-0.431,1.448-0.762
		c0.533-0.33,1.13-0.787,1.791-1.372c0.99-0.864,1.746-1.587,2.268-2.173c0.521-0.584,0.933-1.054,1.238-1.41
		c0.051,0.026,0.114,0.052,0.19,0.077c0.052,0.051,0.096,0.095,0.133,0.133c0.038,0.038,0.059,0.095,0.059,0.172
		c0,0.152-0.077,0.425-0.229,0.819c-0.152,0.394-0.323,0.833-0.515,1.315c-0.19,0.483-0.362,0.966-0.514,1.448
		c-0.153,0.483-0.229,0.89-0.229,1.219c0,0.229,0.069,0.464,0.208,0.706c0.141,0.241,0.426,0.362,0.858,0.362
		c0.229,0,0.477-0.026,0.743-0.077c0.267-0.051,0.584-0.14,0.952-0.266c0.368-0.127,0.801-0.318,1.297-0.572
		c0.495-0.254,1.072-0.572,1.733-0.953c0.915-0.533,1.773-1.061,2.573-1.581c0.8-0.521,1.416-0.934,1.849-1.239l-0.343-0.457
		c-1.196,0.762-2.312,1.423-3.353,1.982c-1.043,0.558-1.844,0.838-2.402,0.838c-0.33,0-0.521-0.095-0.571-0.286
		c-0.052-0.191-0.076-0.374-0.076-0.552c0-0.229,0.051-0.483,0.152-0.763c0.102-0.279,0.215-0.577,0.343-0.895
		c0.127-0.318,0.241-0.63,0.344-0.934c0.102-0.305,0.151-0.597,0.151-0.877c0-0.558-0.171-0.927-0.514-1.105
		c-0.343-0.177-0.68-0.355-1.01-0.533c0.685-0.737,1.296-1.512,1.829-2.325c0.458-0.686,0.883-1.448,1.276-2.287
		c0.395-0.839,0.591-1.689,0.591-2.554c0-0.787-0.178-1.384-0.533-1.791c-0.356-0.406-1.029-0.609-2.021-0.609
		c-0.483,0-1.124,0.147-1.924,0.439c-0.8,0.292-1.582,0.711-2.344,1.257c-0.764,0.547-1.424,1.22-1.983,2.021
		c-0.558,0.8-0.838,1.695-0.838,2.686c0,0.737,0.119,1.36,0.361,1.868c0.241,0.508,0.54,0.94,0.895,1.296
		c0.356,0.356,0.737,0.66,1.144,0.914c0.405,0.255,0.763,0.496,1.067,0.724c-0.255,0.28-0.642,0.68-1.163,1.201
		c-0.519,0.521-1.059,0.997-1.619,1.429c-0.586,0.458-1.163,0.814-1.733,1.067c-0.572,0.255-1.151,0.382-1.735,0.382
		c-0.432,0-0.762-0.108-0.991-0.325c-0.228-0.215-0.393-0.47-0.495-0.762c-0.102-0.291-0.158-0.584-0.172-0.877
		c-0.012-0.291-0.005-0.526,0.02-0.705c-0.178-0.34-0.282-0.403-0.356-0.34l-0.002-0.002c-0.584,0.432-1.181,0.882-1.791,1.351
		c-0.609,0.471-1.206,0.896-1.791,1.277c-0.585,0.382-1.15,0.693-1.696,0.934c-0.547,0.241-1.047,0.362-1.505,0.362
		c-0.204,0-0.376-0.083-0.514-0.248c-0.141-0.164-0.21-0.527-0.21-1.086c0-0.254,0.196-0.953,0.591-2.096
		c0.394-1.144,0.882-2.516,1.467-4.116c0.305-0.813,0.59-1.454,0.858-1.925c0.266-0.47,0.501-0.984,0.704-1.543
		c0.254-0.229,0.47-0.432,0.648-0.61c0.178-0.177,0.317-0.343,0.419-0.496c0.102-0.152,0.172-0.324,0.21-0.514
		c0.038-0.191,0.057-0.425,0.057-0.705c0-0.432-0.134-0.787-0.4-1.067c-0.267-0.279-0.584-0.502-0.953-0.667
		c-0.369-0.165-0.743-0.279-1.124-0.343c-0.381-0.063-0.699-0.095-0.953-0.095c-1.398,0-2.833,0.298-4.306,0.895
		c-1.475,0.597-3.037,1.684-4.688,3.259c-0.686,0.661-1.296,1.397-1.83,2.21c-0.533,0.814-0.991,1.652-1.371,2.516
		c-0.382,0.864-0.674,1.721-0.877,2.572c-0.011,0.045-0.018,0.087-0.028,0.132c-0.605,0.405-1.586,1.132-2.156,1.488
		c-0.61,0.381-1.207,0.724-1.791,1.029c-0.584,0.304-1.143,0.552-1.677,0.743c-0.533,0.191-1.029,0.286-1.486,0.286
		c-0.229,0-0.356-0.095-0.382-0.286c-0.025-0.191-0.038-0.374-0.038-0.552c0-0.28,0.058-0.699,0.172-1.258
		c0.115-0.559,0.279-1.194,0.495-1.906c0.216-0.712,0.458-1.486,0.725-2.325c0.266-0.838,0.553-1.676,0.857-2.515
		c0.863-1.22,1.549-2.356,2.059-3.411c0.507-1.054,0.761-1.924,0.761-2.61c0-0.28-0.057-0.464-0.171-0.553
		c-0.114-0.089-0.261-0.134-0.438-0.134c-0.128,0-0.28,0.014-0.458,0.038c-0.178,0.026-0.369,0.09-0.571,0.191
		c-0.305,0.152-0.534,0.273-0.687,0.362c-0.152,0.089-0.368,0.273-0.647,0.552c-0.509,0.535-0.89,1.15-1.143,1.849
		c-0.255,0.699-0.522,1.481-0.801,2.344c-0.153,0.458-0.261,0.775-0.324,0.953c-0.064,0.178-0.172,0.457-0.324,0.838
		c-0.153,0.229-0.629,0.553-1.429,0.972c-0.8,0.419-1.963,0.731-3.487,0.934c-0.534,0.076-0.991,0.114-1.372,0.114h-0.572
		c0.204-0.61,0.406-1.232,0.61-1.867c0.178-0.534,0.374-1.106,0.59-1.715c0.217-0.61,0.426-1.195,0.629-1.754
		c0.101-0.305,0.223-0.629,0.362-0.971c0.14-0.343,0.273-0.66,0.401-0.953c0.127-0.292,0.228-0.546,0.305-0.763
		c0.076-0.215,0.114-0.361,0.114-0.437c0-0.28-0.09-0.42-0.266-0.42c-0.357,0-0.82,0.127-1.392,0.381
		c-0.572,0.255-1.074,0.75-1.505,1.486c-0.153,0.255-0.311,0.591-0.477,1.011c-0.166,0.419-0.343,0.889-0.534,1.41
		c-0.19,0.521-0.386,1.067-0.59,1.638c-0.204,0.572-0.42,1.125-0.648,1.658l-0.343,0.839c-0.433,0.051-0.781,0.178-1.048,0.381
		c-0.267,0.203-0.4,0.445-0.4,0.724c0,0.331,0.012,0.528,0.038,0.591c0.025,0.064,0.127,0.197,0.305,0.4l-0.347,1.081
		c-0.6,0.416-1.672,1.13-2.152,1.396c-0.598,0.33-1.227,0.636-1.887,0.915c-0.662,0.28-1.31,0.514-1.944,0.705
		c-0.636,0.19-1.181,0.286-1.639,0.286c0.686-0.61,1.301-1.29,1.848-2.039c0.547-0.749,0.998-1.506,1.353-2.268
		c0.357-0.762,0.629-1.499,0.82-2.21c0.19-0.711,0.286-1.334,0.286-1.868c0-1.041-0.216-1.892-0.648-2.553
		c-0.433-0.661-1.271-0.991-2.515-0.991c-0.381,0-0.858,0.083-1.43,0.247c-0.572,0.166-1.169,0.42-1.791,0.763
		c-0.622,0.343-1.245,0.781-1.867,1.315c-0.623,0.533-1.176,1.156-1.658,1.867h-0.115c0.076-0.229,0.191-0.54,0.343-0.934
		c0.153-0.393,0.292-0.768,0.42-1.124c0.152-0.432,0.329-0.877,0.533-1.334c0.737-0.609,1.531-1.27,2.382-1.982
		c0.851-0.711,1.659-1.397,2.42-2.058c1.499-1.27,2.764-2.445,3.793-3.525c1.028-1.08,1.854-2.051,2.477-2.915
		c0.622-0.864,1.073-1.614,1.353-2.249c0.279-0.635,0.419-1.144,0.419-1.524c0-0.204-0.007-0.42-0.019-0.648
		c-0.013-0.229-0.076-0.444-0.191-0.648c-0.114-0.204-0.305-0.368-0.571-0.496C75.615,8.134,75.24,8.07,74.758,8.07
		c-1.169,0-2.534,0.591-4.097,1.773c-1.563,1.181-3.271,3.131-5.126,5.85c-0.33,0.483-0.693,1.099-1.086,1.848
		c-0.394,0.75-0.8,1.557-1.22,2.42c-0.418,0.864-0.831,1.754-1.238,2.668c-0.407,0.914-0.763,1.767-1.067,2.554
		c-0.178,0.076-0.318,0.165-0.42,0.267c-0.28,0.178-0.419,0.356-0.419,0.533c0,0.33,0.165,0.407,0.496,0.229
		c-0.229,0.686-0.457,1.397-0.687,2.134c-0.228,0.737-0.432,1.448-0.609,2.134c-0.152,0.585-0.276,1.13-0.381,1.65
		c-0.657,0.454-1.664,1.1-2.176,1.494c-0.61,0.471-1.207,0.896-1.792,1.277c-0.584,0.382-1.15,0.693-1.695,0.934
		c-0.547,0.241-1.048,0.362-1.505,0.362c-0.205,0-0.376-0.083-0.515-0.248c-0.14-0.164-0.21-0.527-0.21-1.086
		c0-0.254,0.197-0.953,0.59-2.096c0.395-1.144,0.883-2.516,1.469-4.116c0.305-0.813,0.59-1.454,0.857-1.925
		c0.267-0.47,0.502-0.984,0.704-1.543c0.254-0.229,0.47-0.432,0.648-0.61c0.178-0.177,0.318-0.343,0.42-0.496
		c0.102-0.152,0.172-0.324,0.21-0.514c0.038-0.191,0.057-0.425,0.057-0.705c0-0.432-0.134-0.787-0.4-1.067
		c-0.267-0.279-0.585-0.502-0.954-0.667c-0.368-0.165-0.742-0.279-1.123-0.343c-0.381-0.063-0.698-0.095-0.952-0.095
		c-1.398,0-2.834,0.298-4.307,0.895c-1.474,0.597-3.037,1.684-4.688,3.259c-0.686,0.661-1.296,1.397-1.829,2.21
		c-0.534,0.814-0.991,1.652-1.372,2.516c-0.381,0.864-0.674,1.721-0.877,2.572c-0.01,0.04-0.016,0.078-0.026,0.119
		c-0.632,0.379-1.548,0.88-2.043,1.196c-0.597,0.381-1.175,0.724-1.733,1.029c-0.56,0.305-1.074,0.552-1.544,0.743
		c-0.471,0.191-0.883,0.286-1.239,0.286c-0.33,0-0.502-0.108-0.514-0.324c-0.013-0.216-0.019-0.413-0.019-0.591
		c0-0.203,0.076-0.641,0.228-1.315c0.153-0.673,0.343-1.435,0.572-2.286c0.229-0.851,0.482-1.728,0.762-2.63
		c0.279-0.902,0.559-1.696,0.839-2.382c0.228-0.458,0.463-0.946,0.705-1.467c0.241-0.521,0.463-1.03,0.666-1.525
		c0.204-0.495,0.369-0.946,0.496-1.352c0.127-0.407,0.191-0.712,0.191-0.915c0-0.356-0.14-0.534-0.419-0.534
		c-0.128,0-0.319,0.019-0.572,0.057c-0.254,0.038-0.528,0.108-0.82,0.21c-0.292,0.102-0.584,0.222-0.876,0.362
		c-0.293,0.14-0.527,0.324-0.705,0.552c-0.357,0.662-0.686,1.379-0.991,2.154c-0.305,0.775-0.585,1.582-0.838,2.42
		c-0.229,0.356-0.477,0.711-0.744,1.067c-0.267,0.356-0.571,0.75-0.914,1.181c-0.343,0.433-0.743,0.915-1.201,1.449
		c-0.457,0.533-0.991,1.143-1.6,1.829c-0.636,0.712-1.17,1.258-1.601,1.639c-0.433,0.381-0.8,0.661-1.106,0.838
		c-0.304,0.178-0.559,0.28-0.761,0.305c-0.204,0.026-0.395,0.039-0.573,0.039c-0.304,0-0.533-0.115-0.685-0.344
		c-0.153-0.228-0.261-0.495-0.324-0.8c-0.064-0.305-0.089-0.616-0.077-0.934c0.013-0.317,0.019-0.565,0.019-0.743
		c-0.254,0.076-0.52,0.184-0.8,0.324c-0.28,0.14-0.521,0.311-0.724,0.515c-0.152,0.178-0.286,0.394-0.4,0.647
		c-0.115,0.255-0.204,0.521-0.267,0.801c-0.064,0.28-0.114,0.546-0.152,0.8c-0.039,0.254-0.057,0.457-0.057,0.61
		c0,0.533,0.101,1.023,0.304,1.467c0.204,0.445,0.597,0.667,1.182,0.667c0.33,0,0.692-0.057,1.086-0.171
		c0.394-0.115,0.844-0.337,1.353-0.667c0.508-0.33,1.08-0.787,1.715-1.373c0.635-0.583,1.359-1.358,2.173-2.324
		c0.736-0.864,1.403-1.69,2-2.478c0.597-0.787,1.111-1.41,1.544-1.867l0.152,0.076l-0.381,1.525
		c-0.483,1.906-0.845,3.379-1.086,4.421c-0.242,1.042-0.362,1.817-0.362,2.324c0,0.229,0.051,0.464,0.152,0.706
		c0.101,0.241,0.318,0.362,0.648,0.362c0.203,0,0.432-0.026,0.686-0.077c0.254-0.051,0.565-0.152,0.934-0.305
		c0.368-0.152,0.82-0.362,1.353-0.629c0.533-0.266,1.181-0.628,1.943-1.086c0.356-0.203,0.75-0.444,1.182-0.724
		c0.432-0.279,0.857-0.558,1.277-0.838c0.418-0.279,0.812-0.546,1.181-0.8c0.259-0.179,0.475-0.332,0.653-0.46
		c-0.095,0.547-0.147,1.058-0.147,1.527c0,1.042,0.153,1.867,0.458,2.477c0.305,0.61,0.939,0.915,1.905,0.915
		c1.042,0,2.204-0.414,3.488-1.239c1.282-0.826,2.496-1.95,3.639-3.373h0.153c-0.051,0.204-0.109,0.464-0.172,0.782
		c-0.064,0.317-0.121,0.647-0.171,0.99c-0.051,0.343-0.096,0.693-0.133,1.048c-0.039,0.357-0.058,0.661-0.058,0.915
		c0,0.483,0.101,0.882,0.305,1.201c0.203,0.317,0.495,0.476,0.877,0.476c0.482,0,1.13-0.21,1.943-0.629
		c0.813-0.419,1.678-0.934,2.591-1.543c0.916-0.61,1.811-1.252,2.687-1.925c0.837-0.642,1.536-1.22,2.107-1.735
		c-0.067,0.425-0.102,0.794-0.102,1.106c0,0.509,0.032,1.042,0.096,1.601c0.063,0.559,0.215,1.067,0.457,1.525
		c0.241,0.457,0.603,0.838,1.086,1.143c0.482,0.305,1.13,0.457,1.944,0.457c0.482,0,0.964-0.07,1.448-0.21
		c0.482-0.139,0.946-0.324,1.391-0.552c0.445-0.229,0.857-0.483,1.239-0.763c0.38-0.279,0.711-0.546,0.991-0.8
		c0.686-0.05,1.403-0.171,2.152-0.362c0.75-0.19,1.474-0.425,2.173-0.705c0.699-0.279,1.353-0.584,1.963-0.914
		c0.533-0.289,1.431-0.922,1.953-1.28l-0.006,0.022c-0.077,0.279-0.178,0.603-0.305,0.972c-0.127,0.368-0.248,0.724-0.362,1.067
		c-0.114,0.343-0.216,0.66-0.305,0.953c-0.088,0.292-0.133,0.501-0.133,0.628c0,0.331,0.045,0.572,0.133,0.724
		c0.089,0.153,0.349,0.229,0.781,0.229c0.305,0,0.616-0.064,0.935-0.191c0.316-0.126,0.691-0.406,1.124-0.838
		c0.254-0.254,0.489-0.622,0.705-1.105c0.215-0.482,0.412-0.991,0.59-1.525c0.178-0.533,0.33-1.054,0.457-1.562
		c0.127-0.508,0.216-0.915,0.268-1.22c0.202,0,0.431-0.025,0.686-0.076c0.202-0.051,0.443-0.095,0.723-0.133
		c0.28-0.039,0.572-0.108,0.877-0.21c0.838-0.229,1.556-0.477,2.153-0.743c0.597-0.267,1.099-0.502,1.505-0.705
		c0.458-0.254,0.851-0.508,1.182-0.762l-0.343,1.029c-0.101,0.279-0.197,0.565-0.286,0.857c-0.089,0.293-0.158,0.527-0.209,0.705
		c-0.178,0.61-0.363,1.245-0.553,1.906c-0.19,0.661-0.369,1.283-0.533,1.867c-0.166,0.585-0.299,1.104-0.401,1.561
		c-0.101,0.458-0.153,0.788-0.153,0.992c0,0.203,0.039,0.393,0.115,0.571c0.076,0.178,0.279,0.267,0.61,0.267
		c0.382,0,1.029-0.19,1.943-0.572c0.915-0.381,2.059-0.927,3.431-1.638c1.066-0.559,2.013-1.118,2.839-1.677
		c0.737-0.499,1.31-0.913,1.733-1.25c-0.066,0.442-0.101,0.861-0.101,1.25c0,1.042,0.152,1.867,0.456,2.477
		c0.305,0.61,0.94,0.915,1.906,0.915c1.041,0,2.203-0.414,3.487-1.239c1.283-0.826,2.496-1.95,3.64-3.373h0.152
		c-0.051,0.204-0.108,0.464-0.171,0.782c-0.064,0.317-0.121,0.647-0.172,0.99c-0.051,0.343-0.095,0.693-0.133,1.048
		c-0.038,0.357-0.058,0.661-0.058,0.915c0,0.483,0.102,0.882,0.306,1.201c0.203,0.317,0.495,0.476,0.876,0.476
		C105.439,38.636,106.086,38.426,106.9,38.007 M70.605,62.844V44.389h-4.735v31.952h4.381l6.506-19.383v19.383h4.823V44.389h-4.734
		L70.605,62.844z M115.144,76.341h4.823V44.389h-4.735l-6.24,18.455V44.389h-4.735v31.952h4.381l6.506-19.383V76.341z
		 M100.249,44.389h-5.133v27.35h-5.354v-27.35h-5.089v31.952h13.098l0.443,2.921h3.673v-7.523h-1.638V44.389z M121.963,81.417
		c-4.516,0-7.701,3.054-7.701,7.568v17.879c0,4.469,3.23,7.655,7.701,7.655c4.425,0,7.214-2.832,7.214-7.345v-4.647h-4.471v4.735
		c0,1.726-0.886,2.611-2.61,2.611c-1.728,0-2.656-0.841-2.656-2.567V88.631c0-1.726,0.929-2.656,2.656-2.656
		c1.725,0,2.61,0.93,2.61,2.701v4.646h4.471v-4.558C129.177,84.294,126.608,81.417,121.963,81.417 M190.542,95.092
		c0,1.416-0.576,2.124-1.728,2.124h-2.655V86.33h2.655c1.151,0,1.728,0.708,1.728,2.124V95.092z M189.258,81.949h-8.188V113.9h5.09
		v-12.612h3.099c3.981,0,6.194-2.39,6.194-6.417v-6.417C195.452,84.294,193.195,81.949,189.258,81.949 M202.049,103.412
		l1.857-13.055l1.595,13.055H202.049z M206.738,81.949h-5.619l-5.354,31.951h4.69l0.93-6.24h4.645l0.841,6.24h5.135L206.738,81.949z
		 M131.82,113.9h12.79v-4.602h-7.699v-9.78h5.311v-4.205h-5.311v-8.806h7.699v-4.558h-12.79V113.9z M163.893,86.64h4.956v27.26
		h5.045V86.64h4.869v-4.691h-14.87V86.64z M154.709,81.417c-4.516,0-7.701,3.054-7.701,7.568v17.879c0,4.469,3.23,7.655,7.701,7.655
		c4.424,0,7.212-2.832,7.212-7.345v-4.647h-4.471v4.735c0,1.726-0.885,2.611-2.609,2.611c-1.727,0-2.656-0.841-2.656-2.567V88.631
		c0-1.726,0.93-2.656,2.656-2.656c1.725,0,2.609,0.93,2.609,2.701v4.646h4.471v-4.558C161.921,84.294,159.354,81.417,154.709,81.417
		 M164.196,62.578h2.523c1.327,0,2.035,0.797,2.035,2.345v6.993c0,3.009,0.885,4.425,2.7,4.425h3.186v-1.372
		c-0.664-0.885-1.018-1.947-1.018-3.274v-7.259c0-2.168-1.107-3.673-3.143-4.425c2.036-0.796,2.965-2.257,2.965-4.469v-6.461
		c0-1.328,0.354-2.435,1.019-3.275v-1.417h-3.098c-1.814,0-2.7,1.461-2.7,4.426v6.948c0,1.548-0.708,2.345-2.035,2.345h-2.435
		V44.389h-5.09v31.952h5.09V62.578z M149.249,76.961c4.426,0,7.213-2.833,7.213-7.346v-4.647h-4.471v4.734
		c0,1.726-0.884,2.612-2.61,2.612c-1.726,0-2.655-0.841-2.655-2.567V51.072c0-1.726,0.93-2.655,2.655-2.655
		c1.727,0,2.61,0.929,2.61,2.699v4.647h4.471v-4.558c0-4.47-2.566-7.346-7.213-7.346c-4.514,0-7.7,3.053-7.7,7.567v17.878
		C141.549,73.774,144.778,76.961,149.249,76.961 M128.147,44.389h-5.089v31.952h5.089V62.932h5.355v13.409h5.133V44.389h-5.133
		v13.896h-5.355V44.389z M16.513,66.738l-3.585-22.349H6.024v31.952h4.513V52.577l3.806,23.764h3.806l3.983-23.764v23.764H27V44.389
		h-6.815L16.513,66.738z M184.599,52.798l1.593,13.054h-3.452L184.599,52.798z M182.075,70.101h4.647l0.841,6.24h5.133
		l-5.266-31.952h-5.62l-5.355,31.952h4.691L182.075,70.101z M56.73,71.739h-5.354c1.327-1.682,1.814-5.488,1.814-15.534v-7.258h3.54
		V71.739z M61.865,44.389H48.412v11.506c0,14.604-2.125,15.667-3.585,16.064v7.303h3.673l0.443-2.921h10.443l0.443,2.921h3.673
		v-7.523h-1.637V44.389z M200.441,50.806c0-1.327,0.575-2.035,1.727-2.035h2.654v10.134h-2.478c-1.24,0-1.903-0.753-1.903-2.257
		V50.806z M200.308,71.916v-6.683c0-1.549,0.664-2.345,1.993-2.345h2.521v13.453h5.089V44.389h-8.143
		c-3.85,0-6.283,2.213-6.283,6.285v5.664c0,2.257,1.018,3.761,2.965,4.47c-1.991,0.796-3.054,2.256-3.054,4.469v6.418
		c0,1.327-0.354,2.389-0.974,3.274v1.372h3.142C199.38,76.341,200.308,74.925,200.308,71.916 M30.087,76.341h12.789v-4.602h-7.699
		v-9.78h5.31v-4.205h-5.31v-8.807h7.699v-4.558H30.087V76.341z"/>
</g>
<g>
	<path fill="#13A8AB" d="M28.97,114.965H6.066v-4.544l10.809-11.521c1.484-1.622,2.582-3.037,3.293-4.246
		c0.712-1.208,1.067-2.356,1.067-3.442c0-1.484-0.375-2.651-1.125-3.5c-0.75-0.85-1.821-1.274-3.213-1.274
		c-1.5,0-2.682,0.516-3.545,1.549c-0.865,1.032-1.297,2.391-1.297,4.073H5.401c0-2.035,0.485-3.894,1.457-5.577
		c0.972-1.683,2.345-3.002,4.12-3.958c1.774-0.956,3.787-1.435,6.036-1.435c3.442,0,6.116,0.826,8.021,2.479
		c1.905,1.652,2.857,3.986,2.857,7c0,1.652-0.429,3.335-1.285,5.049c-0.857,1.714-2.326,3.71-4.406,5.99l-7.596,8.009H28.97V114.965
		z"/>
	<path fill="#13A8AB" d="M53.219,101.15c0,4.621-0.957,8.155-2.869,10.603c-1.913,2.448-4.712,3.672-8.399,3.672
		c-3.642,0-6.426-1.201-8.354-3.603c-1.928-2.402-2.915-5.844-2.96-10.327v-6.15c0-4.666,0.967-8.208,2.903-10.625
		c1.936-2.417,4.724-3.626,8.365-3.626c3.641,0,6.426,1.197,8.354,3.592s2.915,5.833,2.96,10.315V101.15z M46.586,94.388
		c0-2.772-0.379-4.79-1.136-6.053c-0.758-1.263-1.939-1.895-3.546-1.895c-1.561,0-2.712,0.602-3.454,1.803
		c-0.742,1.203-1.136,3.082-1.182,5.64v8.132c0,2.726,0.371,4.751,1.113,6.076c0.742,1.325,1.931,1.987,3.568,1.987
		c1.622,0,2.792-0.635,3.511-1.907c0.719-1.271,1.094-3.216,1.125-5.834V94.388z"/>
	<path fill="#13A8AB" d="M71.501,114.965h-6.632V89.4l-7.917,2.456v-5.393l13.838-4.957h0.711V114.965z"/>
	<path fill="#13A8AB" d="M95.567,101.609c-1.729,1.698-3.749,2.547-6.059,2.547c-2.953,0-5.317-1.013-7.091-3.041
		c-1.775-2.027-2.662-4.762-2.662-8.205c0-2.188,0.478-4.196,1.435-6.024c0.956-1.828,2.291-3.251,4.004-4.269
		c1.713-1.018,3.641-1.526,5.783-1.526c2.203,0,4.161,0.551,5.875,1.652c1.713,1.102,3.044,2.685,3.993,4.75
		c0.948,2.065,1.43,4.429,1.446,7.091v2.456c0,5.569-1.385,9.945-4.154,13.127c-2.77,3.183-6.694,4.88-11.773,5.095l-1.629,0.023
		v-5.531l1.469-0.023C91.971,109.473,95.092,106.765,95.567,101.609z M91.138,99.084c1.071,0,1.993-0.275,2.766-0.826
		c0.772-0.551,1.357-1.216,1.755-1.997v-2.731c0-2.249-0.429-3.993-1.285-5.232c-0.857-1.239-2.004-1.859-3.442-1.859
		c-1.331,0-2.425,0.608-3.282,1.825c-0.857,1.216-1.285,2.742-1.285,4.578c0,1.821,0.417,3.316,1.251,4.486
		C88.449,98.5,89.623,99.084,91.138,99.084z"/>
</g>
<g>
	<path fill="#13A8AB" d="M137.568,14h-1.652v-8.02h1.652V14z"/>
	<path fill="#13A8AB" d="M146.733,10.525h-3.173v2.148h3.724V14h-5.376v-8.02h5.365v1.338h-3.713v1.912h3.173V10.525z"/>
	<path fill="#13A8AB" d="M155.018,10.734h-0.953V14h-1.652v-3.266h-0.975L149.691,14h-2.06l2.5-4.302l-2.379-3.718h2.055
		l1.784,3.233h0.82V5.981h1.652v3.233h0.805l1.74-3.233h2.049l-2.335,3.712L158.785,14h-2.065L155.018,10.734z"/>
	<path fill="#13A8AB" d="M164.331,10.525h-3.173v2.148h3.724V14h-5.376v-8.02h5.365v1.338h-3.713v1.912h3.173V10.525z"/>
	<path fill="#13A8AB" d="M171.111,7.319h-3.597V14h-1.652v-8.02h5.249V7.319z"/>
	<path fill="#13A8AB" d="M178.306,10.172c0,0.79-0.14,1.482-0.419,2.077s-0.679,1.054-1.198,1.377s-1.115,0.485-1.787,0.485
		c-0.664,0-1.258-0.16-1.779-0.479s-0.925-0.775-1.211-1.369c-0.287-0.593-0.432-1.275-0.436-2.046V9.82
		c0-0.789,0.143-1.484,0.427-2.084s0.687-1.061,1.206-1.382s1.113-0.482,1.782-0.482c0.668,0,1.262,0.161,1.781,0.482
		s0.922,0.782,1.207,1.382c0.284,0.601,0.427,1.293,0.427,2.079V10.172z M176.631,9.809c0-0.841-0.15-1.48-0.451-1.917
		c-0.302-0.437-0.731-0.655-1.289-0.655c-0.555,0-0.982,0.216-1.283,0.647c-0.302,0.431-0.454,1.064-0.457,1.897v0.391
		c0,0.819,0.15,1.454,0.451,1.906s0.734,0.678,1.3,0.678c0.555,0,0.98-0.218,1.278-0.653c0.297-0.435,0.447-1.069,0.451-1.903V9.809
		z"/>
	<path fill="#13A8AB" d="M186.604,15.972h-1.525V14h-4.836v1.966h-1.564l-0.088-3.293h0.605c0.327-0.272,0.579-0.671,0.758-1.198
		c0.178-0.527,0.298-1.18,0.36-1.958l0.231-3.536h5.255v6.692h0.937L186.604,15.972z M181.091,12.673h3.057V7.319h-2.032
		l-0.138,2.11C181.867,10.843,181.571,11.924,181.091,12.673z"/>
	<path fill="#13A8AB" d="M194.128,14h-1.652v-3.437h-3.223V14h-1.652v-8.02h1.652v3.25h3.223v-3.25h1.652V14z"/>
	<path fill="#13A8AB" d="M197.25,8.873h1.289c0.943,0,1.692,0.229,2.244,0.686c0.553,0.457,0.829,1.073,0.829,1.848
		c0,0.778-0.274,1.404-0.823,1.875S199.511,13.993,198.6,14h-3.013v-8.02h1.663V8.873z M197.25,10.206v2.468h1.316
		c0.423,0,0.76-0.116,1.011-0.347c0.252-0.231,0.378-0.542,0.378-0.931c0-0.364-0.121-0.651-0.361-0.862
		c-0.24-0.211-0.57-0.32-0.988-0.328H197.25z M203.953,14h-1.652v-8.02h1.652V14z"/>
	<path fill="#13A8AB" d="M210.21,5.981h1.658V14h-1.658V8.674L206.999,14h-1.652v-8.02h1.652v5.337L210.21,5.981z M210.529,3.877
		c0,0.487-0.176,0.88-0.526,1.18c-0.351,0.3-0.811,0.45-1.379,0.45c-0.569,0-1.029-0.148-1.38-0.444s-0.526-0.692-0.526-1.186h1.129
		c0,0.231,0.069,0.411,0.207,0.537c0.138,0.127,0.327,0.19,0.57,0.19c0.238,0,0.426-0.063,0.562-0.19
		c0.136-0.126,0.204-0.306,0.204-0.537H210.529z"/>
</g>
<g>
	<path fill="#13A8AB" d="M135.812,26.221v-8.02h2.81c0.973,0,1.711,0.187,2.214,0.559c0.503,0.373,0.755,0.919,0.755,1.639
		c0,0.393-0.102,0.739-0.304,1.038c-0.201,0.299-0.482,0.519-0.843,0.658c0.412,0.103,0.735,0.311,0.973,0.623
		c0.236,0.312,0.355,0.694,0.355,1.146c0,0.771-0.246,1.355-0.738,1.751s-1.193,0.599-2.104,0.606H135.812z M137.464,21.561h1.223
		c0.834-0.015,1.251-0.347,1.251-0.997c0-0.363-0.106-0.625-0.317-0.785s-0.544-0.24-0.999-0.24h-1.157V21.561z M137.464,22.729
		v2.165h1.416c0.389,0,0.692-0.093,0.911-0.278s0.328-0.441,0.328-0.769c0-0.734-0.38-1.107-1.141-1.118H137.464z"/>
	<path fill="#13A8AB" d="M149.306,23.549c-0.063,0.863-0.381,1.542-0.956,2.038c-0.574,0.496-1.332,0.744-2.271,0.744
		c-1.028,0-1.837-0.346-2.427-1.039c-0.589-0.692-0.884-1.642-0.884-2.85v-0.49c0-0.771,0.136-1.45,0.407-2.038
		c0.272-0.587,0.66-1.038,1.165-1.352s1.092-0.471,1.76-0.471c0.926,0,1.671,0.248,2.236,0.744c0.565,0.496,0.893,1.191,0.98,2.087
		h-1.652c-0.04-0.518-0.185-0.893-0.433-1.126s-0.625-0.35-1.132-0.35c-0.551,0-0.963,0.197-1.236,0.592
		c-0.273,0.395-0.414,1.007-0.421,1.837v0.606c0,0.867,0.131,1.5,0.394,1.9c0.263,0.4,0.677,0.601,1.242,0.601
		c0.51,0,0.891-0.117,1.143-0.35c0.251-0.233,0.396-0.594,0.433-1.083H149.306z"/>
	<path fill="#13A8AB" d="M155.216,22.745h-3.173v2.148h3.724v1.327h-5.376v-8.02h5.365v1.338h-3.713v1.912h3.173V22.745z"/>
	<path fill="#13A8AB" d="M158.388,23.395v2.826h-1.652v-8.02h3.129c0.602,0,1.132,0.11,1.589,0.331s0.809,0.534,1.055,0.939
		c0.246,0.406,0.369,0.868,0.369,1.385c0,0.786-0.27,1.406-0.807,1.859c-0.538,0.454-1.283,0.68-2.233,0.68H158.388z
		 M158.388,22.057h1.477c0.437,0,0.77-0.103,0.999-0.308s0.345-0.5,0.345-0.881c0-0.393-0.116-0.71-0.347-0.953
		c-0.231-0.242-0.551-0.367-0.959-0.375h-1.515V22.057z"/>
	<path fill="#13A8AB" d="M170.6,22.393c0,0.79-0.14,1.482-0.419,2.077s-0.679,1.054-1.198,1.377s-1.115,0.485-1.787,0.485
		c-0.664,0-1.258-0.16-1.779-0.479s-0.925-0.775-1.211-1.369c-0.287-0.593-0.432-1.275-0.436-2.046V22.04
		c0-0.789,0.143-1.484,0.427-2.084s0.687-1.061,1.206-1.382s1.113-0.482,1.782-0.482c0.668,0,1.262,0.161,1.781,0.482
		s0.922,0.782,1.207,1.382c0.284,0.601,0.427,1.293,0.427,2.079V22.393z M168.925,22.029c0-0.841-0.15-1.48-0.451-1.917
		c-0.302-0.437-0.731-0.655-1.289-0.655c-0.555,0-0.982,0.216-1.283,0.647c-0.302,0.431-0.454,1.064-0.457,1.897v0.391
		c0,0.819,0.15,1.454,0.451,1.906s0.734,0.678,1.3,0.678c0.555,0,0.98-0.218,1.278-0.653c0.297-0.435,0.447-1.069,0.451-1.903
		V22.029z"/>
	<path fill="#13A8AB" d="M178.096,23.549c-0.063,0.863-0.381,1.542-0.956,2.038c-0.574,0.496-1.332,0.744-2.271,0.744
		c-1.028,0-1.837-0.346-2.427-1.039c-0.589-0.692-0.884-1.642-0.884-2.85v-0.49c0-0.771,0.136-1.45,0.407-2.038
		c0.272-0.587,0.66-1.038,1.165-1.352s1.092-0.471,1.76-0.471c0.926,0,1.671,0.248,2.236,0.744c0.565,0.496,0.893,1.191,0.98,2.087
		h-1.652c-0.04-0.518-0.185-0.893-0.433-1.126s-0.625-0.35-1.132-0.35c-0.551,0-0.963,0.197-1.236,0.592
		c-0.273,0.395-0.414,1.007-0.421,1.837v0.606c0,0.867,0.131,1.5,0.394,1.9c0.263,0.4,0.677,0.601,1.242,0.601
		c0.51,0,0.891-0.117,1.143-0.35c0.251-0.233,0.396-0.594,0.433-1.083H178.096z"/>
	<path fill="#13A8AB" d="M185.476,23.549c-0.063,0.863-0.381,1.542-0.956,2.038c-0.574,0.496-1.332,0.744-2.271,0.744
		c-1.028,0-1.837-0.346-2.427-1.039c-0.589-0.692-0.884-1.642-0.884-2.85v-0.49c0-0.771,0.136-1.45,0.407-2.038
		c0.272-0.587,0.66-1.038,1.165-1.352s1.092-0.471,1.76-0.471c0.926,0,1.671,0.248,2.236,0.744c0.565,0.496,0.893,1.191,0.98,2.087
		h-1.652c-0.04-0.518-0.185-0.893-0.433-1.126s-0.625-0.35-1.132-0.35c-0.551,0-0.963,0.197-1.236,0.592
		c-0.273,0.395-0.414,1.007-0.421,1.837v0.606c0,0.867,0.131,1.5,0.394,1.9c0.263,0.4,0.677,0.601,1.242,0.601
		c0.51,0,0.891-0.117,1.143-0.35c0.251-0.233,0.396-0.594,0.433-1.083H185.476z"/>
	<path fill="#13A8AB" d="M191.369,18.201h1.658v8.02h-1.658v-5.326l-3.211,5.326h-1.652v-8.02h1.652v5.337L191.369,18.201z"/>
	<path fill="#13A8AB" d="M199.268,18.201h1.658v8.02h-1.658v-5.326l-3.211,5.326h-1.652v-8.02h1.652v5.337L199.268,18.201z
		 M199.587,16.097c0,0.487-0.176,0.88-0.526,1.18c-0.351,0.3-0.811,0.45-1.379,0.45c-0.569,0-1.029-0.148-1.38-0.444
		s-0.526-0.692-0.526-1.186h1.129c0,0.231,0.069,0.411,0.207,0.537c0.138,0.127,0.327,0.19,0.57,0.19
		c0.238,0,0.426-0.063,0.562-0.19c0.136-0.126,0.204-0.306,0.204-0.537H199.587z"/>
	<path fill="#13A8AB" d="M208.652,23.549c-0.063,0.863-0.381,1.542-0.956,2.038c-0.574,0.496-1.332,0.744-2.271,0.744
		c-1.028,0-1.837-0.346-2.427-1.039c-0.589-0.692-0.884-1.642-0.884-2.85v-0.49c0-0.771,0.136-1.45,0.407-2.038
		c0.272-0.587,0.66-1.038,1.165-1.352s1.092-0.471,1.76-0.471c0.926,0,1.671,0.248,2.236,0.744c0.565,0.496,0.893,1.191,0.98,2.087
		h-1.652c-0.04-0.518-0.185-0.893-0.433-1.126s-0.625-0.35-1.132-0.35c-0.551,0-0.963,0.197-1.236,0.592
		c-0.273,0.395-0.414,1.007-0.421,1.837v0.606c0,0.867,0.131,1.5,0.394,1.9c0.263,0.4,0.677,0.601,1.242,0.601
		c0.51,0,0.891-0.117,1.143-0.35c0.251-0.233,0.396-0.594,0.433-1.083H208.652z"/>
	<path fill="#13A8AB" d="M212.354,22.943H211.4v3.277h-1.652v-8.02h1.652v3.211h0.755l1.961-3.211h2.016l-2.473,3.795l2.731,4.225
		h-1.972L212.354,22.943z"/>
	<path fill="#13A8AB" d="M221.833,18.201h1.658v8.02h-1.658v-5.326l-3.211,5.326h-1.652v-8.02h1.652v5.337L221.833,18.201z"/>
	<path fill="#13A8AB" d="M229.73,18.201h1.658v8.02h-1.658v-5.326l-3.211,5.326h-1.652v-8.02h1.652v5.337L229.73,18.201z
		 M230.05,16.097c0,0.487-0.176,0.88-0.526,1.18c-0.351,0.3-0.811,0.45-1.379,0.45c-0.569,0-1.029-0.148-1.38-0.444
		s-0.526-0.692-0.526-1.186h1.129c0,0.231,0.069,0.411,0.207,0.537c0.138,0.127,0.327,0.19,0.57,0.19
		c0.238,0,0.426-0.063,0.562-0.19c0.136-0.126,0.204-0.306,0.204-0.537H230.05z"/>
</g>
<g>
	<path fill="#13A8AB" d="M138.428,35.163h-0.953v3.277h-1.652v-8.02h1.652v3.211h0.755l1.961-3.211h2.016l-2.473,3.795l2.731,4.225
		h-1.972L138.428,35.163z"/>
	<path fill="#13A8AB" d="M149.382,34.612c0,0.79-0.14,1.482-0.419,2.077s-0.679,1.054-1.198,1.377s-1.115,0.485-1.787,0.485
		c-0.664,0-1.258-0.16-1.779-0.479s-0.925-0.775-1.211-1.369c-0.287-0.593-0.432-1.275-0.436-2.046V34.26
		c0-0.789,0.143-1.484,0.427-2.084s0.687-1.061,1.206-1.382s1.113-0.482,1.782-0.482c0.668,0,1.262,0.161,1.781,0.482
		s0.922,0.782,1.207,1.382c0.284,0.601,0.427,1.293,0.427,2.079V34.612z M147.707,34.249c0-0.841-0.15-1.48-0.451-1.917
		c-0.302-0.437-0.731-0.655-1.289-0.655c-0.555,0-0.982,0.216-1.283,0.647c-0.302,0.431-0.454,1.064-0.457,1.897v0.391
		c0,0.819,0.15,1.454,0.451,1.906s0.734,0.678,1.3,0.678c0.555,0,0.98-0.218,1.278-0.653c0.297-0.435,0.447-1.069,0.451-1.903
		V34.249z"/>
	<path fill="#13A8AB" d="M157.109,38.44h-1.652v-3.437h-3.223v3.437h-1.652v-8.02h1.652v3.25h3.223v-3.25h1.652V38.44z"/>
	<path fill="#13A8AB" d="M161.168,35.163h-0.953v3.277h-1.652v-8.02h1.652v3.211h0.755l1.961-3.211h2.016l-2.473,3.795l2.731,4.225
		h-1.972L161.168,35.163z"/>
	<path fill="#13A8AB" d="M168.847,34.21l1.459-3.79h1.785l-2.804,6.615l-0.226,0.435c-0.415,0.723-1.051,1.085-1.906,1.085
		l-0.578-0.022l-0.017-1.328c0.088,0.015,0.231,0.022,0.43,0.022c0.231,0,0.418-0.04,0.559-0.121
		c0.142-0.081,0.26-0.229,0.355-0.446l0.204-0.523l-2.814-5.717h1.779L168.847,34.21z"/>
	<path fill="#13A8AB" d="M174.612,35.615v2.826h-1.652v-8.02h3.129c0.602,0,1.132,0.11,1.589,0.331s0.809,0.534,1.055,0.939
		c0.246,0.406,0.369,0.868,0.369,1.385c0,0.786-0.27,1.406-0.807,1.859c-0.538,0.454-1.283,0.68-2.233,0.68H174.612z
		 M174.612,34.276h1.477c0.437,0,0.77-0.103,0.999-0.308s0.345-0.5,0.345-0.881c0-0.393-0.116-0.71-0.347-0.953
		c-0.231-0.242-0.551-0.367-0.959-0.375h-1.515V34.276z"/>
	<path fill="#13A8AB" d="M186.532,35.769c-0.063,0.863-0.381,1.542-0.956,2.038c-0.574,0.496-1.332,0.744-2.271,0.744
		c-1.028,0-1.837-0.346-2.427-1.039c-0.589-0.692-0.884-1.642-0.884-2.85v-0.49c0-0.771,0.136-1.45,0.407-2.038
		c0.272-0.587,0.66-1.038,1.165-1.352s1.092-0.471,1.76-0.471c0.926,0,1.671,0.248,2.236,0.744c0.565,0.496,0.893,1.191,0.98,2.087
		h-1.652c-0.04-0.518-0.185-0.893-0.433-1.126s-0.625-0.35-1.132-0.35c-0.551,0-0.963,0.197-1.236,0.592
		c-0.273,0.395-0.414,1.007-0.421,1.837v0.606c0,0.867,0.131,1.5,0.394,1.9c0.263,0.4,0.677,0.601,1.242,0.601
		c0.51,0,0.891-0.117,1.143-0.35c0.251-0.233,0.396-0.594,0.433-1.083H186.532z"/>
</g>
</svg>
