<?xml version="1.0" encoding="utf-8"?>
<!-- Generator: Adobe Illustrator 18.1.1, SVG Export Plug-In . SVG Version: 6.00 Build 0)  -->
<svg version="1.1" id="Isolation_Mode" xmlns="http://www.w3.org/2000/svg" xmlns:xlink="http://www.w3.org/1999/xlink" x="0px"
	 y="0px" viewBox="0 0 94.19 39.757" enable-background="new 0 0 94.19 39.757" xml:space="preserve">
<g>
	<defs>
		<rect id="SVGID_1_" x="0" y="0" width="94.19" height="42.009"/>
	</defs>
	<clipPath id="SVGID_2_">
		<use xlink:href="#SVGID_1_"  overflow="visible"/>
	</clipPath>
	<path clip-path="url(#SVGID_2_)" fill="#ED1A3B" d="M5.845,35.863h0.952c0.503,0,1.006-0.174,1.006-0.777
		c0-0.668-0.677-0.759-1.226-0.759H5.845V35.863z M4.417,33.12h2.407c1.345,0,2.462,0.43,2.462,1.966
		c0,1.517-1.034,1.983-2.398,1.983H5.845v2.524H4.417V33.12z"/>
	<path clip-path="url(#SVGID_2_)" fill="#ED1A3B" d="M13.185,35.799h0.842c0.521,0,1.198-0.018,1.198-0.723
		c0-0.649-0.585-0.749-1.107-0.749h-0.933V35.799z M11.757,33.12h2.508c1.327,0,2.443,0.457,2.443,1.966
		c0,0.905-0.485,1.609-1.4,1.773l1.647,2.734h-1.711l-1.355-2.587h-0.704v2.587h-1.428V33.12z"/>
	<path clip-path="url(#SVGID_2_)" fill="#ED1A3B" d="M22.41,38.441c1.217,0,2.013-0.877,2.013-2.084
		c0-1.207-0.796-2.085-2.013-2.085c-1.217,0-2.013,0.878-2.013,2.085C20.396,37.563,21.192,38.441,22.41,38.441 M22.41,32.955
		c2.022,0,3.496,1.326,3.496,3.401c0,2.075-1.474,3.401-3.496,3.401s-3.496-1.326-3.496-3.401
		C18.914,34.282,20.388,32.955,22.41,32.955"/>
	<polygon clip-path="url(#SVGID_2_)" fill="#ED1A3B" points="28.504,33.12 32.852,33.12 32.852,34.437 29.933,34.437 29.933,35.753 
		32.631,35.753 32.631,37.069 29.933,37.069 29.933,39.593 28.504,39.593 	"/>
	<polygon clip-path="url(#SVGID_2_)" fill="#ED1A3B" points="35.505,33.12 39.907,33.12 39.907,34.437 36.933,34.437 36.933,35.644 
		39.742,35.644 39.742,36.96 36.933,36.96 36.933,38.276 40.072,38.276 40.072,39.593 35.505,39.593 	"/>
	<path clip-path="url(#SVGID_2_)" fill="#ED1A3B" d="M45.993,34.702c-0.229-0.292-0.686-0.43-1.034-0.43
		c-0.403,0-0.961,0.183-0.961,0.667c0,1.18,2.983,0.421,2.983,2.689c0,1.444-1.162,2.129-2.498,2.129
		c-0.833,0-1.565-0.246-2.178-0.813l1.016-1.115c0.293,0.384,0.769,0.612,1.244,0.612c0.467,0,0.988-0.219,0.988-0.676
		c0-1.189-3.037-0.549-3.037-2.706c0-1.381,1.198-2.103,2.47-2.103c0.733,0,1.437,0.192,1.986,0.676L45.993,34.702z"/>
	<path clip-path="url(#SVGID_2_)" fill="#ED1A3B" d="M52.82,34.702c-0.228-0.292-0.686-0.43-1.034-0.43
		c-0.402,0-0.961,0.183-0.961,0.667c0,1.18,2.984,0.421,2.984,2.689c0,1.444-1.163,2.129-2.497,2.129
		c-0.833,0-1.565-0.246-2.179-0.813l1.017-1.115c0.292,0.384,0.768,0.612,1.244,0.612c0.467,0,0.988-0.219,0.988-0.676
		c0-1.189-3.038-0.549-3.038-2.706c0-1.381,1.199-2.103,2.471-2.103c0.732,0,1.437,0.192,1.986,0.676L52.82,34.702z"/>
	<rect x="56.426" y="33.12" clip-path="url(#SVGID_2_)" fill="#ED1A3B" width="1.427" height="6.473"/>
	<path clip-path="url(#SVGID_2_)" fill="#ED1A3B" d="M63.876,38.441c1.217,0,2.013-0.877,2.013-2.084
		c0-1.207-0.796-2.085-2.013-2.085c-1.217,0-2.013,0.878-2.013,2.085C61.863,37.563,62.659,38.441,63.876,38.441 M63.876,32.955
		c2.022,0,3.495,1.326,3.495,3.401c0,2.075-1.473,3.401-3.495,3.401c-2.023,0-3.496-1.326-3.496-3.401
		C60.38,34.282,61.853,32.955,63.876,32.955"/>
	<polygon clip-path="url(#SVGID_2_)" fill="#ED1A3B" points="69.916,33.12 71.857,33.12 74.611,37.618 74.629,37.618 74.629,33.12 
		76.056,33.12 76.056,39.593 74.19,39.593 71.362,34.985 71.344,34.985 71.344,39.593 69.916,39.593 	"/>
	<path clip-path="url(#SVGID_2_)" fill="#ED1A3B" d="M81.629,35.003l-0.787,2.012h1.584L81.629,35.003z M81.081,33.12h1.181
		l2.818,6.473h-1.611l-0.558-1.371h-2.516l-0.54,1.371h-1.574L81.081,33.12z"/>
	<polygon clip-path="url(#SVGID_2_)" fill="#ED1A3B" points="87.359,33.12 88.787,33.12 88.787,38.276 91.431,38.276 91.431,39.593 
		87.359,39.593 	"/>
	<path clip-path="url(#SVGID_2_)" fill="#ED1A3B" d="M85.305,22.143v2.7c-1.396,0.506-2.271,0.521-3.053,0.496
		c-1.862-0.112-2.881-0.876-2.346-1.976C80.368,22.413,81.616,22.069,85.305,22.143 M85.305,19.932
		c-7.342-0.394-10.45,0.968-11.058,3.432c-0.61,2.481,1.448,4.699,6.404,4.499c1.563-0.061,3.668-0.365,4.666-0.95
		c0,0,0.547,0.691,1.601,0.691c1.192,0,4.686,0.003,4.686,0.003s-0.974-0.63-0.974-2.655v-5.519c0-2.887-2.276-3.895-9.172-3.895
		c-4.04,0-5.23,0.472-5.23,0.472l-0.839,2.715c0.748-0.174,3.387-0.589,5.393-0.634c3.381-0.073,4.523,0.304,4.523,1.483V19.932z
		 M43.614,20.634c-0.017-1.454,0.858-2.283,1.972-2.603c1.939-0.548,4.233,0.26,4.169,2.603H43.614z M51.855,23.009
		c0,0,2.814-2.357,2.765-2.357c-0.48-3.735-3.691-5.492-9.217-5.041c-4.397,0.344-7.227,2.467-7.115,6.094
		c0.162,4.568,4.024,6.474,11.196,6.07c2.181-0.123,3.149-0.547,3.149-0.547l1.727-2.921c0,0-2.955,1.114-6.754,0.876
		c-2.675-0.166-3.658-1.25-3.844-2.174H51.855z M31.219,27.598L36.43,27.6V10.1l-5.211,4.485V27.598z M22.965,27.598h5.292V15.816
		h-5.293L22.965,27.598z M7.092,15.816H2.273c1.103,0.621,1.639,1.573,2.358,3.022c0.526,1.056,4.493,8.759,4.493,8.759h6.912
		l6.095-11.768l-4.726-0.004c0,0-3.704,6.62-3.891,7.068c-0.368,0.876-0.43,1.301-0.43,1.301s-0.357-1.008-0.493-1.301
		c-0.131-0.295-1.051-2.059-2.281-4.472C9.494,16.818,9.331,15.816,7.092,15.816 M67.313,18.9v5.613
		c-2.82,1.161-5.175,0.321-5.624-1.664c-0.113-0.549-0.148-1.119-0.035-1.711c0.257-1.986,1.6-2.787,3.759-2.672
		C65.936,18.51,66.464,18.604,67.313,18.9 M67.313,16.19c-4.47-1.412-9.772-0.5-11.097,3.464c-0.464,1.396-0.503,2.79-0.033,4.176
		c0.772,2.31,2.92,3.604,5.187,3.959c2.425,0.377,4.681-0.327,6.053-0.886c0.103,0.338,0.623,0.699,1.315,0.699
		c0.685,0,3.936,0.001,3.936,0.001V11.181l-5.361,0.001V16.19z M89.111,13.156c0.382-0.077,0.61-0.315,0.61-0.671
		c0-0.635-0.518-0.722-1.024-0.722h-0.642l-0.031,2.562h0.328l0.034-1.154l0.344,0.033l0.651,1.105l0.392,0.016h0.058
		C89.831,14.325,89.145,13.215,89.111,13.156 M88.382,12.106h0.386c0.4,0,0.567,0.114,0.567,0.379c0,0.377-0.398,0.377-0.721,0.377
		h-0.262C88.352,12.862,88.381,12.167,88.382,12.106 M86.865,13.064c0,1.081,0.878,1.96,1.957,1.96c1.079,0,1.962-0.879,1.962-1.96
		c0-1.079-0.883-1.957-1.962-1.957C87.743,11.107,86.865,11.985,86.865,13.064 M87.197,13.064c0-0.898,0.73-1.627,1.625-1.627
		c0.899,0,1.628,0.729,1.628,1.627c0,0.895-0.729,1.625-1.628,1.625C87.928,14.689,87.197,13.959,87.197,13.064"/>
	<path clip-path="url(#SVGID_2_)" fill="#ED1A3B" d="M33.582,2.272c0,0-4.206,0.541-7.139,3.468
		c-0.301,0.301-0.576,0.616-0.829,0.937c-0.253-0.321-0.527-0.636-0.828-0.937c-2.933-2.927-7.139-3.468-7.139-3.468
		s0.545,4.207,3.477,7.134c0.701,0.701,1.476,1.263,2.248,1.716c-0.312,1.042-0.405,1.754-0.405,1.754s1.141-0.148,2.647-0.701
		c1.507,0.553,2.647,0.701,2.647,0.701s-0.092-0.712-0.404-1.754c0.773-0.453,1.546-1.015,2.247-1.716
		C33.036,6.479,33.582,2.272,33.582,2.272"/>
</g>
</svg>
