<?xml version="1.0" encoding="utf-8"?>
<!-- Generator: Adobe Illustrator 18.1.1, SVG Export Plug-In . SVG Version: 6.00 Build 0)  -->
<svg version="1.1" id="Isolation_Mode" xmlns="http://www.w3.org/2000/svg" xmlns:xlink="http://www.w3.org/1999/xlink" x="0px"
	 y="0px" viewBox="0 0 98.825 29.746" enable-background="new 0 0 98.825 29.746" xml:space="preserve">
<g>
	<defs>
		<rect id="SVGID_1_" x="7.263" y="0" width="90.528" height="29.746"/>
	</defs>
	<clipPath id="SVGID_2_">
		<use xlink:href="#SVGID_1_"  overflow="visible"/>
	</clipPath>
	<path clip-path="url(#SVGID_2_)" fill-rule="evenodd" clip-rule="evenodd" fill="#2E3092" d="M97.705,5.608l-0.24,0.008l0.24-0.017
		l-0.008-0.132l-0.016-0.149l-0.014-0.138l-0.021-0.128l-0.023-0.136l-0.035-0.136l-0.033-0.124L97.512,4.52l-0.045-0.114
		l-0.099-0.23l-0.114-0.222l-0.131-0.203l-0.146-0.185l-0.17-0.172l-0.172-0.152l-0.197-0.136l-4.404-2.578L92.027,0.54
		c-0.066-0.042-0.126-0.09-0.196-0.125c-0.569-0.284-1.334-0.414-2.308-0.414h-5.516L82.26,5.302l0.023-2.494l-0.12-0.214
		l-4.272-2.584V0.001h-3.384l-1.744,2.744l-0.056-0.151l-4.181-2.587l0.002-0.006h-3.207l-0.78,2.361l-3.813-2.358l0.002-0.003
		h-3.208l-0.375,1.143l-1.836-1.136l0.003-0.007h-2.967l-1.781,1.974l-3.183-1.974h-3.019l-0.06,0.164l-0.963,2.899l-4.315-2.518
		c-0.376-0.212-0.816-0.354-1.31-0.44c-0.407-0.074-1.088-0.105-2.067-0.105h-4.668L25.792,15.75h0.009l4.615,2.545l0.108,0.023
		h6.196l0.261-0.003l0.251-0.005l0.256-0.01l0.235-0.021l0.225-0.015l0.234-0.024l0.216-0.029l0.221-0.034l0.207-0.034l0.2-0.041
		l0.209-0.05l0.189-0.047l0.179-0.053l0.189-0.059l0.172-0.068l0.17-0.065l0.166-0.073l0.16-0.075l0.162-0.095l0.149-0.081
		l0.16-0.107l0.144-0.099l0.145-0.107l0.139-0.117l0.075-0.064l2.3,1.342l0.12,0.034h2.52l0.186-0.078l1.723-1.921l3.366,1.965
		l0.125,0.034h2.542l0.23-0.165l0.353-1.064l2.05,1.195l0.123,0.034h2.706l0.235-0.166l0.718-2.206l4.01,2.338l0.126,0.034h2.704
		l0.232-0.166l0.188-0.577l1.218,0.709l0.123,0.034h2.781l0.207-0.112l2.003-3.262h0.392L74.7,15.74l-0.003,0.005l0.003,0.001v0.004
		h0.007l4.511,2.534l0.123,0.034h2.57l0.237-0.24l0.007-0.535l1.275,0.741l0.12,0.034h2.708l0.23-0.166l1.863-5.656h1.773
		l0.203-0.005h0.387l0.182-0.003l0.176-0.008h0.158l0.162-0.01l0.145-0.008l0.137-0.003l0.136-0.011l0.122-0.01l0.118-0.01
		l0.098-0.013l0.093-0.008l0.095-0.015l0.283-0.05l0.274-0.055l0.248-0.055l0.244-0.065l0.225-0.068l0.219-0.075l0.207-0.084
		l0.185-0.081l0.19-0.102l0.176-0.098l0.185-0.119l0.177-0.125l0.178-0.133l0.174-0.148l0.175-0.155l0.172-0.169l0.168-0.175
		l0.167-0.191l0.171-0.211l0.153-0.216l0.15-0.238l0.154-0.24l0.148-0.263l0.145-0.277l0.062-0.135l0.071-0.141l0.059-0.141
		l0.063-0.144l0.06-0.149l0.05-0.141l0.054-0.141l0.045-0.151l0.045-0.141l0.043-0.146l0.04-0.152l0.033-0.141l0.038-0.153
		l0.026-0.15l0.029-0.14l0.02-0.162l0.024-0.149l0.015-0.164l0.016-0.152l0.008-0.161l0.006-0.146V5.75L97.705,5.608z"/>
	<path clip-path="url(#SVGID_2_)" fill-rule="evenodd" clip-rule="evenodd" fill="#2E3092" d="M32.305,21.875l-9.518-5.747
		l0.359-0.38l0.203-1.226l-0.385-0.444l0.538-0.376l1.048-5.846l-4.025,2.151V8.805l4.61-4.891l-1.901-1.983l-2.709,2.834V0.537
		h-1.272v4.181L16.57,1.916l-1.928,2.13l4.611,4.739v1.253l-3.199-1.759l-0.111,3.722l-0.992-0.596l-1.753-6.618l-2.589,0.726
		l0.996,3.872L8.113,7.275C7.884,7.647,7.67,8.039,7.478,8.429l3.449,2.083l-3.664,1.028l0.805,2.803l6.225-1.795l1.039,0.626
		l-3.053,2.015l3.032,1.956l-0.997,0.601l-6.357-1.722l-0.694,2.703l3.701,1.039l-3.471,2.098c0.193,0.397,0.407,0.777,0.641,1.154
		l3.43-2.073l-0.98,3.831l2.729,0.673l1.618-6.533l1.038-0.627l0.141,3.773l3.143-1.764v1.159l-4.611,4.895l1.901,1.984l2.71-2.834
		v4.228c0.213,0.01,0.433,0.015,0.651,0.015c0.205,0,0.414-0.005,0.621-0.015v-4.187l2.684,2.808l1.926-2.134l-4.61-4.734v-1.211
		l3.2,1.754l0.106-3.722l0.965,0.58l1.748,6.613l2.589-0.726l-0.986-3.868l3.512,2.125C31.889,22.657,32.103,22.272,32.305,21.875
		 M13.855,15.183l2.292-1.519l0.847,0.512l-1.509,0.996l1.492,0.966l-0.85,0.512L13.855,15.183z M19.253,19.307l-2.36,1.32
		l-0.104-2.834l0.845-0.506l0.062,1.863l1.557-0.872V19.307z M17.045,15.168l0.757-0.502l0.809,0.486l-0.82,0.495L17.045,15.168z
		 M19.253,17.297l-0.772,0.438l-0.038-0.938l0.81-0.491V17.297z M19.253,13.993l-0.824-0.49l0.03-0.919l0.794,0.438V13.993z
		 M19.253,12.042l-1.588-0.871l-0.051,1.842l-0.846-0.517l0.078-2.797l2.407,1.325V12.042z M20.525,11.002l2.909-1.56l-0.497,3.126
		l-0.72,0.408l0.062-1.974l-1.754,1.023V11.002z M22.537,15.022l-0.043,0.288l-0.491,0.454l-0.104-0.058l-1.033-0.58l1.074-0.615
		l0.157,0.136L22.537,15.022z M20.525,13.012l0.977-0.589l-0.026,1.002l-0.951,0.573V13.012z M20.525,16.306l0.826,0.495
		l-0.026,0.919l-0.8-0.433V16.306z M22.926,20.601l-2.401-1.321v-1.017l1.583,0.867l0.051-1.838l0.851,0.516L22.926,20.601z"/>
	<path clip-path="url(#SVGID_2_)" fill-rule="evenodd" clip-rule="evenodd" fill="#2E3092" d="M95.061,16.432h0.352
		c0.174,0,0.304,0.035,0.38,0.095c0.074,0.066,0.121,0.186,0.123,0.353c0.019,0.266,0.024,0.417,0.029,0.454
		c0.019,0.031,0.029,0.068,0.063,0.096h0.444c-0.026-0.02-0.044-0.054-0.06-0.086c-0.01-0.031-0.021-0.19-0.031-0.48
		c-0.016-0.193-0.053-0.337-0.094-0.415c-0.053-0.081-0.133-0.141-0.24-0.164v-0.013c0.119-0.05,0.219-0.12,0.29-0.212
		c0.065-0.093,0.099-0.205,0.099-0.344c0-0.224-0.061-0.394-0.202-0.517c-0.127-0.115-0.313-0.178-0.555-0.178h-1.033v2.409h0.436
		V16.432z M95.061,15.35h0.45c0.158,0,0.282,0.035,0.356,0.094c0.073,0.063,0.11,0.155,0.11,0.272
		C95.975,15.841,95.94,15.935,95.87,16c-0.06,0.071-0.167,0.102-0.31,0.102h-0.498V15.35z M95.478,18.655
		c0.641,0,1.187-0.231,1.636-0.7c0.455-0.465,0.677-1.034,0.677-1.707c0-0.668-0.222-1.234-0.677-1.704
		c-0.449-0.469-0.995-0.707-1.636-0.707c-0.637,0-1.185,0.238-1.636,0.707c-0.458,0.477-0.682,1.047-0.677,1.704
		c0,0.666,0.222,1.237,0.677,1.707C94.293,18.424,94.842,18.655,95.478,18.655 M94.149,14.802c0.366-0.397,0.813-0.606,1.329-0.606
		c0.519,0,0.967,0.209,1.333,0.606c0.366,0.397,0.543,0.885,0.543,1.446c0,0.569-0.177,1.055-0.543,1.454
		c-0.366,0.394-0.814,0.598-1.333,0.593c-0.516,0.005-0.963-0.199-1.329-0.596c-0.362-0.402-0.55-0.885-0.55-1.451
		C93.6,15.687,93.788,15.199,94.149,14.802 M65.54,20.973c-0.189-0.112-0.396-0.17-0.633-0.17c-0.357,0-0.653,0.122-0.874,0.358
		c-0.229,0.244-0.339,0.571-0.339,0.99c0,0.22,0.047,0.435,0.144,0.632c0.095,0.201,0.238,0.355,0.425,0.471
		c0.188,0.115,0.405,0.177,0.641,0.177c0.227,0,0.428-0.056,0.617-0.16c0.191-0.101,0.335-0.256,0.442-0.458
		c0.104-0.203,0.159-0.431,0.159-0.692c0-0.253-0.055-0.48-0.151-0.68C65.873,21.24,65.728,21.083,65.54,20.973 M65.525,22.874
		c-0.162,0.178-0.367,0.272-0.622,0.272c-0.251,0-0.456-0.094-0.619-0.266c-0.165-0.179-0.246-0.419-0.246-0.721
		c0-0.385,0.083-0.656,0.26-0.823c0.171-0.158,0.37-0.242,0.608-0.242c0.171,0,0.32,0.042,0.457,0.129
		c0.134,0.085,0.233,0.2,0.302,0.36c0.072,0.149,0.112,0.332,0.112,0.538C65.777,22.446,65.686,22.694,65.525,22.874 M46.326,20.847
		l-0.973,2.54h0.358l0.274-0.768h1.066l0.295,0.768h0.383l-1.037-2.54H46.326z M46.086,22.348l0.278-0.748
		c0.059-0.159,0.104-0.322,0.13-0.484c0.039,0.137,0.104,0.311,0.191,0.527l0.263,0.705H46.086z M54.124,21.891h-1.322v-1.044
		h-0.334v2.54h0.334v-1.194h1.322v1.194h0.335v-2.54h-0.335V21.891z M51.567,22.085c-0.262,0.105-0.508,0.158-0.746,0.158
		c-0.141,0-0.262-0.042-0.363-0.134c-0.105-0.084-0.153-0.267-0.153-0.544v-0.718h-0.334V21.6c0,0.202,0.023,0.368,0.068,0.493
		c0.046,0.129,0.14,0.235,0.266,0.314c0.139,0.079,0.294,0.123,0.472,0.123c0.231,0,0.491-0.056,0.79-0.162v1.019h0.34v-2.54h-0.34
		V22.085z M48.753,22.407l-0.83-1.56h-0.341l1.03,1.864c-0.068,0.189-0.134,0.309-0.198,0.36c-0.056,0.054-0.126,0.085-0.211,0.085
		c-0.098,0-0.194-0.03-0.282-0.085v0.288c0.124,0.038,0.231,0.058,0.314,0.058c0.141,0,0.247-0.036,0.329-0.112
		c0.074-0.077,0.173-0.234,0.294-0.481l0.954-1.977h-0.334L48.753,22.407z M57.62,22.629h0.953v-0.315H57.62V22.629z M58.962,23.387
		h0.335v-2.235h1.33v2.235h0.326v-2.54h-1.991V23.387z M56.767,20.973c-0.189-0.112-0.401-0.17-0.635-0.17
		c-0.355,0-0.647,0.122-0.878,0.358c-0.223,0.244-0.334,0.571-0.334,0.99c0,0.22,0.044,0.435,0.143,0.632
		c0.095,0.201,0.241,0.355,0.43,0.471c0.189,0.115,0.398,0.177,0.638,0.177c0.215,0,0.424-0.056,0.618-0.16
		c0.187-0.101,0.33-0.256,0.444-0.458c0.101-0.203,0.153-0.431,0.153-0.692c0-0.253-0.052-0.48-0.147-0.68
		C57.1,21.24,56.957,21.083,56.767,20.973 M56.75,22.874c-0.161,0.178-0.365,0.272-0.627,0.272c-0.242,0-0.445-0.094-0.615-0.266
		c-0.16-0.179-0.246-0.419-0.246-0.721c0-0.385,0.086-0.656,0.254-0.823c0.172-0.158,0.375-0.242,0.617-0.242
		c0.167,0,0.316,0.042,0.454,0.129c0.135,0.085,0.234,0.2,0.303,0.36c0.072,0.149,0.102,0.332,0.102,0.538
		C56.993,22.446,56.916,22.694,56.75,22.874 M44.738,21.891h-1.318v-1.044h-0.336v2.54h0.336v-1.194h1.318v1.194h0.334v-2.54h-0.334
		V21.891z M63.16,20.994c-0.08-0.056-0.183-0.097-0.312-0.117c-0.086-0.017-0.217-0.03-0.385-0.03h-0.952v2.54h0.326v-1.029h0.653
		c0.36,0,0.613-0.08,0.749-0.227c0.138-0.149,0.208-0.332,0.208-0.548c0-0.124-0.027-0.24-0.079-0.347
		C63.316,21.134,63.243,21.05,63.16,20.994 M62.962,21.934c-0.093,0.085-0.246,0.125-0.463,0.125h-0.663v-0.907h0.653
		c0.155,0,0.257,0.004,0.315,0.02c0.086,0.026,0.159,0.078,0.212,0.147c0.053,0.08,0.08,0.169,0.08,0.275
		C63.097,21.745,63.055,21.852,62.962,21.934 M89.58,21.891h-1.321v-1.044h-0.335v2.54h0.335v-1.194h1.321v1.194h0.335v-2.54H89.58
		V21.891z M91.97,24.95c-0.081-0.062-0.184-0.098-0.309-0.121c-0.09-0.016-0.219-0.022-0.39-0.022h-0.956v2.532h0.338v-1.027h0.653
		c0.355,0,0.609-0.077,0.743-0.223c0.135-0.151,0.206-0.333,0.206-0.551c0-0.123-0.029-0.24-0.078-0.342
		C92.128,25.088,92.054,25.006,91.97,24.95 M91.773,25.891c-0.094,0.078-0.245,0.121-0.463,0.121h-0.658v-0.904H91.3
		c0.156,0,0.26,0.007,0.313,0.021c0.084,0.023,0.161,0.075,0.21,0.149c0.057,0.071,0.084,0.167,0.084,0.274
		C91.908,25.696,91.86,25.812,91.773,25.891 M92.139,21.891h-1.321v-1.044H90.49v2.54h0.328v-1.194h1.321v1.194h0.34v-2.54h-0.34
		V21.891z M88.078,26.816v-2.009h-0.304v2.532h0.334l1.351-2v2h0.305v-2.532h-0.336L88.078,26.816z M93.73,20.847l-0.973,2.54h0.354
		l0.281-0.768h1.062l0.295,0.768h0.376l-1.034-2.54H93.73z M93.491,22.348l0.277-0.748c0.059-0.159,0.101-0.322,0.136-0.484
		c0.038,0.137,0.099,0.311,0.178,0.527l0.268,0.705H93.491z M93.996,26.569c-0.063,0.18-0.104,0.314-0.138,0.406
		c-0.02-0.081-0.064-0.205-0.122-0.372l-0.594-1.796h-0.509v2.532h0.323v-2.154l0.735,2.154h0.299l0.742-2.123v2.123h0.32v-2.532
		h-0.447L93.996,26.569z M96.292,24.807l-0.977,2.532h0.361l0.281-0.767h1.057l0.296,0.767h0.383l-1.038-2.532H96.292z M96.045,26.3
		l0.284-0.743c0.06-0.164,0.108-0.321,0.137-0.485c0.039,0.139,0.101,0.313,0.176,0.523l0.268,0.705H96.045z M95.612,22.693
		l-0.436,0.694h0.417l0.336-0.526c0.101-0.158,0.182-0.271,0.246-0.353c0.059-0.076,0.117-0.137,0.169-0.168
		c0.051-0.03,0.104-0.056,0.152-0.066c0.039-0.009,0.099-0.015,0.185-0.015h0.392v1.128h0.335v-2.54h-1.126
		c-0.222,0-0.398,0.03-0.519,0.073c-0.115,0.045-0.209,0.124-0.279,0.241c-0.071,0.116-0.101,0.244-0.101,0.382
		c0,0.177,0.054,0.331,0.171,0.453c0.12,0.125,0.293,0.205,0.539,0.236c-0.088,0.043-0.159,0.085-0.202,0.129
		C95.8,22.45,95.699,22.56,95.612,22.693 M95.99,21.92c-0.085-0.029-0.151-0.082-0.19-0.149c-0.052-0.071-0.076-0.143-0.076-0.228
		c0-0.122,0.048-0.219,0.131-0.293c0.084-0.078,0.227-0.116,0.413-0.116h0.806v0.839h-0.72C96.2,21.973,96.079,21.953,95.99,21.92
		 M85.887,22.222h1.408v-0.296h-1.408v-0.774h1.505v-0.305h-1.836v2.54h1.896v-0.304h-1.565V22.222z M70.372,22.045
		c0.219-0.127,0.333-0.313,0.333-0.546c0-0.184-0.072-0.347-0.215-0.479c-0.148-0.143-0.342-0.214-0.586-0.214
		c-0.522,0-0.818,0.276-0.897,0.807l0.318,0.079c0-0.057,0.019-0.133,0.057-0.237c0.03-0.104,0.094-0.192,0.186-0.257
		c0.089-0.064,0.196-0.1,0.329-0.1c0.143,0,0.261,0.044,0.35,0.129c0.083,0.081,0.131,0.178,0.131,0.284
		c0,0.092-0.036,0.181-0.097,0.249c-0.067,0.076-0.133,0.123-0.218,0.139c-0.087,0.019-0.202,0.027-0.358,0.027v0.288h0.162
		c0.188,0,0.336,0.045,0.439,0.125c0.112,0.082,0.171,0.198,0.171,0.335c0,0.13-0.056,0.239-0.155,0.329
		c-0.108,0.095-0.249,0.142-0.418,0.142c-0.181,0-0.319-0.063-0.423-0.188c-0.112-0.125-0.174-0.247-0.195-0.369l-0.321,0.083
		c0.144,0.505,0.459,0.759,0.939,0.759c0.275,0,0.497-0.076,0.668-0.223c0.172-0.148,0.252-0.328,0.252-0.55
		c0-0.15-0.045-0.283-0.126-0.393C70.609,22.156,70.499,22.085,70.372,22.045 M75.239,20.973c-0.192-0.112-0.4-0.17-0.631-0.17
		c-0.357,0-0.653,0.122-0.882,0.358c-0.219,0.244-0.338,0.571-0.338,0.99c0,0.22,0.048,0.435,0.145,0.632
		c0.102,0.201,0.245,0.355,0.432,0.471c0.186,0.115,0.398,0.177,0.636,0.177c0.224,0,0.426-0.056,0.619-0.16
		c0.188-0.101,0.335-0.256,0.441-0.458c0.108-0.203,0.156-0.431,0.156-0.692c0-0.253-0.048-0.48-0.147-0.68
		C75.565,21.24,75.424,21.083,75.239,20.973 M75.226,22.874c-0.162,0.178-0.373,0.272-0.625,0.272c-0.247,0-0.456-0.094-0.618-0.266
		c-0.169-0.179-0.243-0.419-0.243-0.721c0-0.385,0.079-0.656,0.254-0.823c0.173-0.158,0.377-0.242,0.614-0.242
		c0.174,0,0.317,0.042,0.454,0.129c0.129,0.085,0.235,0.2,0.304,0.36c0.073,0.149,0.104,0.332,0.104,0.538
		C75.47,22.446,75.394,22.694,75.226,22.874 M72.668,22.039c0.118-0.06,0.21-0.14,0.267-0.233c0.06-0.097,0.091-0.2,0.091-0.307
		c0-0.118-0.036-0.227-0.108-0.331c-0.06-0.112-0.156-0.189-0.269-0.243c-0.118-0.048-0.275-0.078-0.468-0.078h-0.95v2.54h0.967
		c0.165,0,0.297-0.018,0.407-0.044c0.114-0.031,0.205-0.07,0.283-0.129c0.069-0.052,0.134-0.131,0.188-0.23
		c0.044-0.104,0.068-0.213,0.068-0.336c0-0.145-0.04-0.273-0.122-0.383C72.938,22.161,72.823,22.085,72.668,22.039 M71.566,21.152
		h0.508c0.179,0,0.312,0.009,0.385,0.034c0.073,0.026,0.133,0.067,0.174,0.13c0.038,0.065,0.062,0.143,0.062,0.224
		c0,0.09-0.024,0.164-0.068,0.219c-0.046,0.059-0.11,0.102-0.195,0.127c-0.063,0.017-0.17,0.032-0.317,0.032h-0.549V21.152z
		 M72.751,22.865c-0.038,0.063-0.08,0.11-0.13,0.139c-0.054,0.033-0.119,0.056-0.194,0.072c-0.047,0.007-0.119,0.007-0.229,0.007
		h-0.632v-0.868h0.585c0.162,0,0.288,0.017,0.371,0.04c0.087,0.029,0.149,0.081,0.204,0.152c0.045,0.067,0.074,0.151,0.074,0.241
		C72.801,22.731,72.782,22.803,72.751,22.865 M77.948,20.847h-1.546v0.376c0,0.936-0.102,1.556-0.308,1.86h-0.194v0.894h0.298v-0.59
		h1.678v0.59h0.299v-0.894h-0.227V20.847z M77.61,23.083h-1.172c0.115-0.237,0.193-0.545,0.228-0.919
		c0.041-0.371,0.057-0.667,0.057-0.886v-0.126h0.887V23.083z M66.866,22.861v-2.014h-0.308v2.54h0.334l1.354-2.006v2.006h0.302
		v-2.54H68.21L66.866,22.861z M85.081,22.648c0-0.145-0.042-0.273-0.115-0.383c-0.084-0.104-0.208-0.18-0.356-0.226
		c0.117-0.06,0.209-0.14,0.262-0.233c0.062-0.097,0.094-0.2,0.094-0.307c0-0.118-0.038-0.227-0.104-0.331
		c-0.064-0.112-0.156-0.189-0.275-0.243c-0.116-0.048-0.273-0.078-0.468-0.078h-0.951v2.54h0.966c0.16,0,0.295-0.018,0.414-0.044
		c0.107-0.031,0.2-0.07,0.274-0.129c0.075-0.052,0.135-0.131,0.189-0.23C85.061,22.88,85.081,22.771,85.081,22.648 M83.505,21.152
		h0.507c0.182,0,0.31,0.009,0.385,0.034c0.074,0.026,0.138,0.067,0.177,0.13c0.036,0.065,0.062,0.143,0.062,0.224
		c0,0.09-0.026,0.164-0.072,0.219c-0.045,0.059-0.105,0.102-0.193,0.127c-0.062,0.017-0.168,0.032-0.316,0.032h-0.55V21.152z
		 M84.685,22.865c-0.037,0.063-0.075,0.11-0.13,0.139c-0.047,0.033-0.114,0.056-0.189,0.072c-0.044,0.007-0.119,0.007-0.232,0.007
		h-0.629v-0.868h0.589c0.158,0,0.283,0.017,0.365,0.04c0.089,0.029,0.157,0.081,0.206,0.152c0.043,0.067,0.074,0.151,0.074,0.241
		C84.74,22.731,84.717,22.803,84.685,22.865 M80.119,22.98c-0.126,0.108-0.291,0.166-0.476,0.166c-0.156,0-0.299-0.044-0.434-0.121
		c-0.131-0.086-0.229-0.201-0.292-0.362c-0.061-0.16-0.095-0.349-0.095-0.57c0-0.163,0.029-0.323,0.081-0.481
		c0.051-0.157,0.143-0.283,0.277-0.377c0.129-0.093,0.295-0.141,0.488-0.141c0.168,0,0.307,0.042,0.426,0.129
		c0.107,0.085,0.194,0.218,0.254,0.403l0.331-0.081c-0.071-0.233-0.189-0.413-0.361-0.541c-0.174-0.127-0.391-0.198-0.648-0.198
		c-0.224,0-0.424,0.054-0.61,0.157c-0.187,0.103-0.331,0.251-0.431,0.446c-0.098,0.194-0.151,0.427-0.151,0.684
		c0,0.247,0.044,0.474,0.136,0.686c0.083,0.211,0.217,0.377,0.391,0.483c0.17,0.113,0.39,0.169,0.663,0.169
		c0.264,0,0.491-0.076,0.676-0.221c0.179-0.142,0.307-0.357,0.376-0.626l-0.335-0.086C80.338,22.711,80.252,22.869,80.119,22.98
		 M86.304,25.112v-0.327h-0.315v0.327c-0.3,0.008-0.552,0.1-0.753,0.273c-0.199,0.167-0.299,0.395-0.299,0.676
		c0,0.281,0.1,0.508,0.308,0.676c0.192,0.172,0.444,0.267,0.744,0.278v0.324h0.315v-0.324c0.333-0.017,0.593-0.119,0.77-0.3
		c0.189-0.176,0.28-0.395,0.28-0.654c0-0.261-0.096-0.483-0.283-0.663C86.881,25.227,86.625,25.129,86.304,25.112 M85.989,26.723
		c-0.209-0.01-0.38-0.072-0.505-0.184c-0.131-0.117-0.192-0.277-0.192-0.478c0-0.203,0.061-0.365,0.192-0.48
		c0.129-0.113,0.3-0.174,0.505-0.183V26.723z M86.815,26.539c-0.126,0.112-0.295,0.176-0.512,0.19v-1.331
		c0.222,0.012,0.395,0.077,0.521,0.194c0.118,0.112,0.181,0.27,0.181,0.469C87.005,26.262,86.94,26.422,86.815,26.539
		 M80.825,21.152h0.843v2.235h0.334v-2.235h0.834v-0.305h-2.011V21.152z"/>
	<path clip-path="url(#SVGID_2_)" fill-rule="evenodd" clip-rule="evenodd" fill="#FFFFFF" d="M65.67,0.481l-1.945,5.898h-5.6
		l1.937-5.898h-2.193L53.01,15.267h2.197l2.242-6.822h5.598l-2.245,6.822h2.203l4.853-14.786H65.67z M65.379,15.267h2.203
		l2.08-3.376h5.596l-0.06,3.376h2.077L77.4,0.481h-2.626L65.379,15.267z M75.296,9.605L75.29,9.838h-4.626l4.803-7.223L75.296,9.605
		z M92.618,2.009c-0.219-0.553-0.548-0.924-1.01-1.159c-0.457-0.237-1.159-0.37-2.085-0.37h-5.169l-4.867,14.786h2.199l1.918-5.822
		h1.906c1.155,0,1.962-0.031,2.361-0.102c0.733-0.112,1.317-0.287,1.752-0.49c0.434-0.211,0.862-0.528,1.29-0.95
		c0.413-0.415,0.805-0.976,1.159-1.691c0.356-0.705,0.585-1.43,0.691-2.171c0.043-0.277,0.062-0.543,0.062-0.788
		C92.825,2.783,92.756,2.37,92.618,2.009 M90.501,4.37c-0.088,0.589-0.315,1.132-0.68,1.623c-0.368,0.488-0.833,0.853-1.384,1.075
		c-0.577,0.235-1.556,0.328-2.998,0.328h-1.172l1.612-4.885h2.112c0.901,0,1.451,0.039,1.777,0.183
		c0.288,0.124,0.506,0.349,0.641,0.634c0.085,0.196,0.122,0.415,0.122,0.655C90.531,4.106,90.52,4.233,90.501,4.37 M39.966,3.253
		c0-0.341-0.042-0.664-0.133-0.962c-0.149-0.483-0.392-0.848-0.751-1.127c-0.367-0.282-0.846-0.479-1.449-0.585
		c-0.348-0.057-1.017-0.099-1.985-0.099h-4.317l-4.864,14.786h5.865c1.348,0,2.422-0.182,3.218-0.522
		c0.806-0.343,1.467-0.903,2.015-1.694c0.56-0.79,0.893-1.625,1.022-2.497c0.019-0.172,0.034-0.336,0.034-0.49
		c-0.002-0.454-0.095-0.857-0.297-1.232c-0.272-0.498-0.678-0.836-1.278-1.036L36.378,7.57l0.666-0.237
		c0.863-0.303,1.523-0.757,1.988-1.331c0.47-0.59,0.764-1.276,0.886-2.088C39.951,3.686,39.966,3.466,39.966,3.253 M36.263,10.852
		c-0.069,0.456-0.256,0.895-0.555,1.3c-0.305,0.402-0.681,0.704-1.121,0.882c-0.466,0.188-1.216,0.261-2.333,0.263h-2.943
		l1.471-4.473h3.401c0.789,0,1.38,0.165,1.73,0.582c0.252,0.297,0.378,0.673,0.378,1.088C36.291,10.611,36.279,10.731,36.263,10.852
		 M37.658,4.351c-0.061,0.436-0.24,0.846-0.512,1.219c-0.286,0.391-0.671,0.67-1.141,0.835c-0.481,0.172-1.172,0.24-2.114,0.245
		h-2.405l1.356-4.097h2.276c0.764,0.003,1.221,0.016,1.469,0.068c0.387,0.093,0.704,0.297,0.89,0.605
		c0.145,0.225,0.211,0.491,0.208,0.781C37.685,4.116,37.675,4.233,37.658,4.351 M52.561,0.481l-9.234,10.251L46.71,0.481h-1.996
		l-4.916,14.786h2.073l9.306-10.36l-3.463,10.36h2.033l4.897-14.786H52.561z"/>
</g>
</svg>
