<?xml version="1.0" encoding="utf-8"?>
<!-- Generator: Adobe Illustrator 18.1.1, SVG Export Plug-In . SVG Version: 6.00 Build 0)  -->
<svg version="1.1" id="Isolation_Mode" xmlns="http://www.w3.org/2000/svg" xmlns:xlink="http://www.w3.org/1999/xlink" x="0px"
	 y="0px" viewBox="0 0 78.724 61.636" enable-background="new 0 0 78.724 61.636" xml:space="preserve">
<g>
	<defs>
		<path id="SVGID_1_" d="M35.856,31.778C23.41,31.829,9.037,31.881,0,31.79c4.596,6.424,16.973,11.159,30.337,11.253
			c14.02,0.093,24.991-5.064,29.961-11.253c0.043-0.054-2.098-0.071-5.656-0.071C50.129,31.719,43.341,31.748,35.856,31.778"/>
	</defs>
	<clipPath id="SVGID_2_">
		<use xlink:href="#SVGID_1_"  overflow="visible"/>
	</clipPath>
	
		<linearGradient id="SVGID_3_" gradientUnits="userSpaceOnUse" x1="-431.8596" y1="250.8874" x2="-430.859" y2="250.8874" gradientTransform="matrix(60.2993 0 0 -60.2993 26040.834 15165.7598)">
		<stop  offset="0" style="stop-color:#FBC926"/>
		<stop  offset="0.0056" style="stop-color:#FBC926"/>
		<stop  offset="0.099" style="stop-color:#FDDD6A"/>
		<stop  offset="0.2038" style="stop-color:#FEF3B0"/>
		<stop  offset="0.2528" style="stop-color:#FFFBCC"/>
		<stop  offset="0.5955" style="stop-color:#C3922E"/>
		<stop  offset="0.6762" style="stop-color:#CEA345"/>
		<stop  offset="0.8444" style="stop-color:#E9CF7E"/>
		<stop  offset="0.8708" style="stop-color:#EED688"/>
		<stop  offset="0.9108" style="stop-color:#F2DF99"/>
		<stop  offset="0.99" style="stop-color:#FDF8C6"/>
		<stop  offset="1" style="stop-color:#FFFBCC"/>
	</linearGradient>
	<rect x="0.001" y="31.719" clip-path="url(#SVGID_2_)" fill="url(#SVGID_3_)" width="60.34" height="11.417"/>
</g>
<g>
	<defs>
		<path id="SVGID_4_" d="M33.524,0.328l-0.655,0.376L24.85,0.516c-0.983-0.047-1.732,0.375-2.719,0.703h0.047
			c0.986,0.376,1.733,0.751,2.672,0.704l8.066-0.188l0.608,0.375l2.346,0.327l-0.844-0.75l-0.047-0.937L35.87,0L33.524,0.328z"/>
	</defs>
	<clipPath id="SVGID_5_">
		<use xlink:href="#SVGID_4_"  overflow="visible"/>
	</clipPath>
	
		<linearGradient id="SVGID_6_" gradientUnits="userSpaceOnUse" x1="-431.8592" y1="250.8888" x2="-430.8591" y2="250.8888" gradientTransform="matrix(13.7373 0 0 -13.7373 5954.7109 3447.7534)">
		<stop  offset="0" style="stop-color:#FBC926"/>
		<stop  offset="0.0056" style="stop-color:#FBC926"/>
		<stop  offset="0.099" style="stop-color:#FDDD6A"/>
		<stop  offset="0.2038" style="stop-color:#FEF3B0"/>
		<stop  offset="0.2528" style="stop-color:#FFFBCC"/>
		<stop  offset="0.5955" style="stop-color:#C3922E"/>
		<stop  offset="0.6762" style="stop-color:#CEA345"/>
		<stop  offset="0.8444" style="stop-color:#E9CF7E"/>
		<stop  offset="0.8708" style="stop-color:#EED688"/>
		<stop  offset="0.9108" style="stop-color:#F2DF99"/>
		<stop  offset="0.99" style="stop-color:#FDF8C6"/>
		<stop  offset="1" style="stop-color:#FFFBCC"/>
	</linearGradient>
	<rect x="22.131" y="0" clip-path="url(#SVGID_5_)" fill="url(#SVGID_6_)" width="13.738" height="2.438"/>
</g>
<g>
	<defs>
		<path id="SVGID_7_" d="M36.308,1.314c11.725,0.514,35.337,4.894,35.337,21.66c0,11.722-16.645,21.286-37.042,21.286
			c-2.108,0-4.173-0.14-6.189-0.374h-0.422c-5.25,0-10.032-0.891-13.502-2.297c-1.125-0.047,1.734,0.844,3.75,1.5
			c5.769,1.969,12.52,2.813,19.599,2.813c22.505,0,40.885-10.128,40.885-22.553c0-18.708-30.447-22.392-42.438-22.392L36.308,1.314z
			"/>
	</defs>
	<clipPath id="SVGID_8_">
		<use xlink:href="#SVGID_7_"  overflow="visible"/>
	</clipPath>
	
		<linearGradient id="SVGID_9_" gradientUnits="userSpaceOnUse" x1="-431.8641" y1="250.8831" x2="-430.8643" y2="250.8831" gradientTransform="matrix(64.4883 0 0 -64.4883 27864.3965 16202.457)">
		<stop  offset="0" style="stop-color:#FBC926"/>
		<stop  offset="0.0056" style="stop-color:#FBC926"/>
		<stop  offset="0.099" style="stop-color:#FDDD6A"/>
		<stop  offset="0.2038" style="stop-color:#FEF3B0"/>
		<stop  offset="0.2528" style="stop-color:#FFFBCC"/>
		<stop  offset="0.5955" style="stop-color:#C3922E"/>
		<stop  offset="0.6762" style="stop-color:#CEA345"/>
		<stop  offset="0.8444" style="stop-color:#E9CF7E"/>
		<stop  offset="0.8708" style="stop-color:#EED688"/>
		<stop  offset="0.9108" style="stop-color:#F2DF99"/>
		<stop  offset="0.99" style="stop-color:#FDF8C6"/>
		<stop  offset="1" style="stop-color:#FFFBCC"/>
	</linearGradient>
	<rect x="13.366" y="0.958" clip-path="url(#SVGID_8_)" fill="url(#SVGID_9_)" width="65.358" height="44.944"/>
</g>
<g>
	<defs>
		<path id="SVGID_10_" d="M15.785,48.676l-2.967,2.35h-1.199l0.375-2.35H9.701l-1.067,6.711h2.291l0.418-2.623h1.197l2.489,2.623
			h3.323l-3.638-3.516l4.228-3.195H15.785z M57.261,48.676l-0.373,2.35h-4.95l0.376-2.35h-2.293l-1.068,6.711h2.293l0.416-2.623
			h4.947l-0.415,2.623h2.29l1.068-6.711H57.261z M25.425,50.404h3.313c0.27,0,0.467,0.053,0.59,0.159
			c0.146,0.133,0.193,0.347,0.146,0.641c-0.046,0.3-0.163,0.515-0.352,0.64c-0.153,0.107-0.368,0.16-0.638,0.16h-3.312
			L25.425,50.404z M23.41,48.666l-1.067,6.721h2.289l0.262-1.645h3.313c1.222,0,2.052-0.139,2.492-0.413
			c0.532-0.333,0.885-1.04,1.059-2.125c0.173-1.091,0.044-1.803-0.391-2.135c-0.346-0.269-1.13-0.403-2.353-0.403H23.41z
			 M63.656,48.666l-0.275,1.738h3.29l-0.792,4.982h2.293l0.792-4.982h3.28l0.277-1.738H63.656z M37.996,53.53
			c-0.198-0.14-0.227-0.642-0.09-1.5c0.136-0.864,0.325-1.367,0.568-1.509c0.241-0.141,1.02-0.212,2.34-0.212
			c1.313,0,2.068,0.071,2.265,0.212c0.194,0.142,0.225,0.645,0.087,1.509c-0.137,0.858-0.327,1.36-0.568,1.5
			c-0.241,0.142-1.02,0.212-2.341,0.212C38.945,53.742,38.192,53.672,37.996,53.53 M36.727,49.098
			c-0.483,0.321-0.855,1.297-1.114,2.933c-0.19,1.19-0.244,1.972-0.164,2.342c0.106,0.482,0.486,0.795,1.143,0.941
			c0.523,0.113,1.654,0.168,3.389,0.168c2.375,0,3.827-0.172,4.352-0.516c0.489-0.32,0.864-1.298,1.124-2.935
			c0.261-1.636,0.196-2.616-0.198-2.94c-0.416-0.346-1.81-0.519-4.178-0.519C38.705,48.571,37.254,48.747,36.727,49.098"/>
	</defs>
	<clipPath id="SVGID_11_">
		<use xlink:href="#SVGID_10_"  overflow="visible"/>
	</clipPath>
	
		<linearGradient id="SVGID_12_" gradientUnits="userSpaceOnUse" x1="-431.8623" y1="250.885" x2="-430.8623" y2="250.885" gradientTransform="matrix(63.8877 0 0 -63.8877 27599.3223 16080.4912)">
		<stop  offset="0" style="stop-color:#FBC926"/>
		<stop  offset="0.0056" style="stop-color:#FBC926"/>
		<stop  offset="0.099" style="stop-color:#FDDD6A"/>
		<stop  offset="0.2038" style="stop-color:#FEF3B0"/>
		<stop  offset="0.2528" style="stop-color:#FFFBCC"/>
		<stop  offset="0.5955" style="stop-color:#C3922E"/>
		<stop  offset="0.6762" style="stop-color:#CEA345"/>
		<stop  offset="0.8444" style="stop-color:#E9CF7E"/>
		<stop  offset="0.8708" style="stop-color:#EED688"/>
		<stop  offset="0.9108" style="stop-color:#F2DF99"/>
		<stop  offset="0.99" style="stop-color:#FDF8C6"/>
		<stop  offset="1" style="stop-color:#FFFBCC"/>
	</linearGradient>
	<rect x="8.635" y="48.571" clip-path="url(#SVGID_11_)" fill="url(#SVGID_12_)" width="63.886" height="6.909"/>
</g>
<path fill="none" stroke="#FBC926" stroke-width="0.25" stroke-miterlimit="1" d="M9.295,47.273h63.713H9.295z"/>
<path fill="none" stroke="#FBC926" stroke-width="0.25" stroke-miterlimit="1" d="M8.295,56.701h63.713H8.295z"/>
<g>
	<defs>
		<path id="SVGID_13_" d="M14.333,58.817h0.022l0.148,0.591h-0.508L14.333,58.817z M14.289,58.424l-0.678,0.984h-0.227l-0.077,0.482
			h0.352l0.04-0.217h1.022l-0.036,0.217h0.36l0.08-0.482h-0.231l-0.361-0.984H14.289z M15.508,58.424l-0.202,1.25h0.374l0.156-0.947
			h0.54l-0.157,0.947h0.378l0.204-1.25H15.508z M20.158,58.424l-0.838,0.729l0.117-0.729h-0.37l-0.204,1.25h0.2l0.835-0.715
			l-0.117,0.715h0.376l0.195-1.25H20.158z M21.128,58.954c-0.036-0.021-0.056-0.057-0.056-0.106c0-0.106,0.08-0.162,0.242-0.162
			h0.114l-0.047,0.299H21.29C21.219,58.984,21.166,58.975,21.128,58.954 M21.473,58.424c-0.186,0-0.313,0.003-0.378,0.01
			c-0.065,0.008-0.129,0.026-0.192,0.06c-0.065,0.032-0.12,0.082-0.167,0.149c-0.047,0.067-0.07,0.135-0.07,0.203
			c0,0.137,0.075,0.242,0.221,0.312l-0.495,0.517h0.424l0.413-0.453h0.113l-0.076,0.453h0.378l0.207-1.25H21.473z M22.11,58.424
			l-0.052,0.301h0.521l-0.153,0.949h0.379l0.156-0.949h0.496l0.049-0.301H22.11z M24.856,58.424l-0.836,0.729l0.114-0.729h-0.368
			l-0.206,1.25h0.202l0.834-0.715l-0.117,0.715h0.376l0.197-1.25H24.856z M32.586,58.424l-0.072,0.449h-0.539l0.072-0.449h-0.378
			l-0.2,1.25h0.374l0.086-0.519h0.539l-0.086,0.519h0.377l0.206-1.25H32.586z M35.471,59.142h0.149c0.167,0,0.251,0.052,0.251,0.16
			c0,0.094-0.088,0.141-0.261,0.141h-0.188L35.471,59.142z M35.555,58.65h0.122c0.133,0,0.202,0.044,0.202,0.132
			c0,0.042-0.022,0.075-0.062,0.102c-0.042,0.029-0.089,0.041-0.141,0.041h-0.168L35.555,58.65z M35.213,58.424l-0.205,1.25h0.668
			c0.401,0,0.599-0.117,0.599-0.352c0-0.147-0.098-0.255-0.296-0.32c0.183-0.047,0.276-0.139,0.276-0.273
			c0-0.082-0.04-0.154-0.118-0.215c-0.077-0.059-0.192-0.09-0.342-0.09H35.213z M39.497,58.424l-0.074,0.449h-0.538l0.072-0.449
			H38.58l-0.203,1.25h0.375l0.086-0.519h0.539l-0.084,0.519h0.377l0.203-1.25H39.497z M43.172,59.142h0.148
			c0.167,0,0.25,0.052,0.25,0.16c0,0.094-0.088,0.141-0.262,0.141h-0.187L43.172,59.142z M43.252,58.65h0.125
			c0.134,0,0.201,0.044,0.201,0.132c0,0.042-0.02,0.075-0.063,0.102c-0.039,0.029-0.085,0.041-0.138,0.041h-0.17L43.252,58.65z
			 M42.912,58.424l-0.205,1.25h0.67c0.398,0,0.596-0.117,0.596-0.352c0-0.147-0.099-0.255-0.296-0.32
			c0.186-0.047,0.277-0.139,0.277-0.273c0-0.082-0.038-0.154-0.117-0.215c-0.079-0.059-0.193-0.09-0.343-0.09H42.912z
			 M53.299,58.424l-0.836,0.729l0.115-0.729h-0.37l-0.201,1.25h0.2l0.835-0.715l-0.117,0.715h0.373l0.198-1.25H53.299z
			 M54.995,58.424l-0.836,0.729l0.113-0.729h-0.368l-0.204,1.25h0.2l0.837-0.715l-0.118,0.715h0.376l0.194-1.25H54.995z
			 M56.688,59.142h0.147c0.167,0,0.251,0.052,0.251,0.16c0,0.094-0.088,0.141-0.262,0.141h-0.188L56.688,59.142z M56.769,58.65
			h0.123c0.133,0,0.202,0.044,0.202,0.132c0,0.042-0.022,0.075-0.063,0.102c-0.041,0.029-0.088,0.041-0.14,0.041h-0.167
			L56.769,58.65z M56.428,58.424l-0.206,1.25h0.669c0.4,0,0.599-0.117,0.599-0.352c0-0.147-0.098-0.255-0.295-0.32
			c0.182-0.047,0.275-0.139,0.275-0.273c0-0.082-0.04-0.154-0.117-0.215c-0.078-0.059-0.193-0.09-0.342-0.09H56.428z M65.835,58.424
			l-0.201,1.25h0.377l0.155-0.949h0.495l0.048-0.301H65.835z M69.362,58.817h0.024l0.145,0.591h-0.508L69.362,58.817z
			 M69.316,58.424l-0.676,0.984h-0.226l-0.08,0.482h0.353l0.042-0.217h1.02l-0.036,0.217h0.361l0.08-0.482h-0.231l-0.363-0.984
			H69.316z M71.498,58.424l-0.512,0.745l-0.292-0.745h-0.362l0.423,1.082l-0.427,0.627h0.39l1.176-1.709H71.498z M10.394,59.334
			c-0.069-0.06-0.101-0.14-0.101-0.236c0-0.076,0.021-0.15,0.066-0.223c0.045-0.072,0.101-0.124,0.169-0.158
			c0.065-0.035,0.144-0.052,0.233-0.052c0.107,0,0.194,0.029,0.262,0.091c0.07,0.059,0.102,0.139,0.102,0.237
			c0,0.127-0.045,0.229-0.135,0.312c-0.089,0.08-0.2,0.119-0.327,0.119C10.551,59.424,10.461,59.394,10.394,59.334 M10.617,58.43
			c-0.07,0.024-0.143,0.068-0.223,0.131l0.021-0.137h-0.362l-0.279,1.709h0.368l0.1-0.633c0.051,0.066,0.115,0.119,0.192,0.153
			c0.078,0.035,0.165,0.053,0.256,0.053c0.136,0,0.265-0.03,0.391-0.094c0.125-0.062,0.225-0.149,0.301-0.261
			c0.074-0.112,0.11-0.229,0.11-0.353c0-0.161-0.057-0.303-0.172-0.424c-0.117-0.121-0.272-0.184-0.472-0.184
			C10.762,58.392,10.685,58.405,10.617,58.43 M12.317,58.742c0.073-0.041,0.154-0.061,0.244-0.061c0.091,0,0.167,0.02,0.231,0.06
			c0.066,0.038,0.112,0.097,0.139,0.174H12.15C12.188,58.84,12.245,58.783,12.317,58.742 M11.982,58.604
			c-0.165,0.141-0.247,0.311-0.247,0.516c0,0.178,0.065,0.32,0.198,0.428c0.132,0.105,0.313,0.159,0.54,0.159
			c0.146,0,0.279-0.022,0.398-0.069c0.122-0.045,0.216-0.109,0.289-0.189l-0.324-0.139c-0.105,0.078-0.229,0.115-0.365,0.115
			c-0.115,0-0.204-0.025-0.269-0.076c-0.063-0.053-0.099-0.123-0.101-0.21h1.194c0.009-0.048,0.015-0.089,0.015-0.126
			c0-0.116-0.032-0.221-0.096-0.318c-0.063-0.098-0.149-0.172-0.26-0.225c-0.11-0.05-0.235-0.077-0.374-0.077
			C12.346,58.392,12.148,58.464,11.982,58.604 M17.543,59.334c-0.067-0.06-0.102-0.14-0.102-0.236c0-0.076,0.024-0.15,0.069-0.223
			c0.045-0.072,0.102-0.124,0.166-0.158c0.068-0.035,0.144-0.052,0.234-0.052c0.107,0,0.195,0.029,0.263,0.091
			c0.069,0.059,0.103,0.139,0.103,0.237c0,0.127-0.045,0.229-0.135,0.312c-0.09,0.08-0.201,0.119-0.331,0.119
			C17.701,59.424,17.612,59.394,17.543,59.334 M17.765,58.43c-0.068,0.024-0.142,0.068-0.222,0.131l0.023-0.137h-0.362l-0.279,1.709
			h0.366l0.103-0.633c0.047,0.066,0.111,0.119,0.19,0.153c0.079,0.035,0.164,0.053,0.254,0.053c0.136,0,0.268-0.03,0.393-0.094
			c0.126-0.062,0.226-0.149,0.3-0.261c0.073-0.112,0.11-0.229,0.11-0.353c0-0.161-0.058-0.303-0.174-0.424
			c-0.115-0.121-0.272-0.184-0.469-0.184C17.912,58.392,17.834,58.405,17.765,58.43 M25.857,58.742
			c0.073-0.041,0.154-0.061,0.244-0.061c0.092,0,0.169,0.02,0.232,0.06c0.065,0.038,0.112,0.097,0.141,0.174h-0.781
			C25.73,58.84,25.785,58.783,25.857,58.742 M25.523,58.604c-0.163,0.141-0.245,0.311-0.245,0.516c0,0.178,0.064,0.32,0.198,0.428
			c0.13,0.105,0.311,0.159,0.54,0.159c0.145,0,0.279-0.022,0.397-0.069c0.12-0.045,0.216-0.109,0.29-0.189l-0.325-0.139
			c-0.107,0.078-0.227,0.115-0.366,0.115c-0.113,0-0.202-0.025-0.267-0.076c-0.066-0.053-0.099-0.123-0.104-0.21h1.195
			c0.01-0.048,0.017-0.089,0.017-0.126c0-0.116-0.033-0.221-0.097-0.318c-0.063-0.098-0.151-0.172-0.26-0.225
			c-0.109-0.05-0.235-0.077-0.375-0.077C25.889,58.392,25.688,58.464,25.523,58.604 M28.34,59.34
			c-0.066-0.058-0.098-0.134-0.098-0.229c0-0.104,0.039-0.202,0.119-0.292c0.08-0.091,0.195-0.136,0.346-0.136
			c0.109,0,0.199,0.029,0.267,0.087c0.068,0.058,0.103,0.133,0.103,0.225c0,0.112-0.04,0.211-0.122,0.299
			c-0.08,0.087-0.199,0.13-0.354,0.13C28.492,59.424,28.404,59.394,28.34,59.34 M28.133,58.599c-0.172,0.14-0.26,0.315-0.26,0.524
			c0,0.174,0.064,0.313,0.191,0.422c0.126,0.106,0.297,0.161,0.51,0.161c0.244,0,0.45-0.069,0.618-0.205
			c0.165-0.137,0.248-0.301,0.248-0.495c0-0.12-0.03-0.224-0.091-0.318c-0.06-0.094-0.144-0.166-0.254-0.219
			c-0.109-0.05-0.23-0.077-0.362-0.077C28.503,58.392,28.303,58.464,28.133,58.599 M29.932,58.605
			c-0.168,0.142-0.251,0.313-0.251,0.516c0,0.176,0.067,0.318,0.204,0.426c0.132,0.105,0.317,0.159,0.551,0.159
			c0.148,0,0.286-0.022,0.406-0.069c0.124-0.045,0.224-0.109,0.305-0.191l-0.288-0.171c-0.094,0.101-0.227,0.149-0.405,0.149
			c-0.124,0-0.225-0.029-0.296-0.086c-0.074-0.06-0.109-0.136-0.109-0.232c0-0.075,0.023-0.147,0.068-0.213
			c0.047-0.067,0.107-0.119,0.184-0.154c0.079-0.036,0.165-0.055,0.265-0.055c0.149,0,0.267,0.047,0.356,0.141l0.31-0.141
			c-0.144-0.194-0.363-0.292-0.66-0.292C30.31,58.392,30.096,58.464,29.932,58.605 M33.649,59.34
			c-0.067-0.058-0.098-0.134-0.098-0.229c0-0.104,0.039-0.202,0.118-0.292c0.08-0.091,0.198-0.136,0.348-0.136
			c0.108,0,0.198,0.029,0.266,0.087c0.069,0.058,0.104,0.133,0.104,0.225c0,0.112-0.042,0.211-0.123,0.299
			c-0.081,0.087-0.2,0.13-0.354,0.13C33.802,59.424,33.713,59.394,33.649,59.34 M33.44,58.599c-0.17,0.14-0.258,0.315-0.258,0.524
			c0,0.174,0.064,0.313,0.191,0.422c0.127,0.106,0.296,0.161,0.51,0.161c0.243,0,0.45-0.069,0.617-0.205
			c0.166-0.137,0.247-0.301,0.247-0.495c0-0.12-0.027-0.224-0.089-0.318c-0.061-0.094-0.145-0.166-0.254-0.219
			c-0.109-0.05-0.23-0.077-0.363-0.077C33.812,58.392,33.613,58.464,33.44,58.599 M37,59.342c-0.071-0.059-0.104-0.138-0.104-0.236
			c0-0.128,0.046-0.23,0.137-0.311c0.091-0.08,0.203-0.119,0.334-0.119c0.112,0,0.204,0.029,0.272,0.09
			c0.069,0.06,0.105,0.139,0.105,0.238c0,0.075-0.025,0.148-0.071,0.219c-0.046,0.074-0.101,0.125-0.17,0.158
			c-0.065,0.034-0.146,0.051-0.236,0.051C37.158,59.432,37.07,59.401,37,59.342 M36.943,58.486c-0.125,0.063-0.226,0.148-0.303,0.26
			c-0.074,0.111-0.11,0.229-0.11,0.352c0,0.162,0.058,0.304,0.175,0.426c0.117,0.123,0.275,0.183,0.473,0.183
			c0.088,0,0.166-0.012,0.233-0.037c0.072-0.025,0.145-0.067,0.226-0.13l-0.021,0.135h0.365l0.208-1.25H37.82l-0.03,0.178
			c-0.05-0.067-0.116-0.121-0.192-0.156c-0.079-0.035-0.166-0.054-0.258-0.054C37.203,58.392,37.07,58.424,36.943,58.486
			 M40.557,59.34c-0.065-0.058-0.097-0.134-0.097-0.229c0-0.104,0.039-0.202,0.119-0.292c0.081-0.091,0.197-0.136,0.347-0.136
			c0.11,0,0.197,0.029,0.267,0.087c0.069,0.058,0.102,0.133,0.102,0.225c0,0.112-0.041,0.211-0.121,0.299
			c-0.082,0.087-0.199,0.13-0.353,0.13C40.712,59.424,40.623,59.394,40.557,59.34 M40.35,58.599
			c-0.172,0.14-0.257,0.315-0.257,0.524c0,0.174,0.063,0.313,0.19,0.422c0.127,0.106,0.296,0.161,0.51,0.161
			c0.244,0,0.451-0.069,0.615-0.205c0.169-0.137,0.252-0.301,0.252-0.495c0-0.12-0.03-0.224-0.091-0.318
			c-0.063-0.094-0.145-0.166-0.256-0.219c-0.108-0.05-0.23-0.077-0.362-0.077C40.723,58.392,40.521,58.464,40.35,58.599
			 M47.07,59.34c-0.065-0.058-0.099-0.134-0.099-0.229c0-0.104,0.042-0.202,0.122-0.292c0.081-0.091,0.194-0.136,0.344-0.136
			c0.11,0,0.199,0.029,0.268,0.087c0.068,0.058,0.102,0.133,0.102,0.225c0,0.112-0.038,0.211-0.12,0.299
			c-0.081,0.087-0.198,0.13-0.355,0.13C47.222,59.424,47.136,59.394,47.07,59.34 M46.863,58.599
			c-0.172,0.14-0.259,0.315-0.259,0.524c0,0.174,0.064,0.313,0.192,0.422c0.127,0.106,0.297,0.161,0.508,0.161
			c0.246,0,0.452-0.069,0.619-0.205c0.164-0.137,0.25-0.301,0.25-0.495c0-0.12-0.033-0.224-0.093-0.318
			c-0.06-0.094-0.146-0.166-0.254-0.219c-0.109-0.05-0.229-0.077-0.362-0.077C47.234,58.392,47.033,58.464,46.863,58.599
			 M48.661,58.605c-0.164,0.142-0.249,0.313-0.249,0.516c0,0.176,0.068,0.318,0.203,0.426c0.134,0.105,0.317,0.159,0.55,0.159
			c0.151,0,0.287-0.022,0.407-0.069c0.123-0.045,0.224-0.109,0.304-0.191l-0.287-0.171c-0.093,0.101-0.227,0.149-0.403,0.149
			c-0.127,0-0.228-0.029-0.299-0.086c-0.073-0.06-0.108-0.136-0.108-0.232c0-0.075,0.025-0.147,0.07-0.213
			c0.046-0.067,0.107-0.119,0.182-0.154c0.079-0.036,0.166-0.055,0.268-0.055c0.146,0,0.265,0.047,0.353,0.141l0.313-0.141
			c-0.147-0.194-0.367-0.292-0.662-0.292C49.04,58.392,48.828,58.464,48.661,58.605 M50.47,58.605
			c-0.168,0.142-0.251,0.313-0.251,0.516c0,0.176,0.069,0.318,0.204,0.426c0.135,0.105,0.317,0.159,0.551,0.159
			c0.149,0,0.286-0.022,0.406-0.069c0.123-0.045,0.224-0.109,0.305-0.191l-0.288-0.171c-0.092,0.101-0.229,0.149-0.403,0.149
			c-0.127,0-0.227-0.029-0.299-0.086c-0.072-0.06-0.109-0.136-0.109-0.232c0-0.075,0.023-0.147,0.071-0.213
			c0.045-0.067,0.105-0.119,0.183-0.154c0.076-0.036,0.166-0.055,0.265-0.055c0.149,0,0.265,0.047,0.356,0.141l0.309-0.141
			c-0.145-0.194-0.364-0.292-0.659-0.292C50.849,58.392,50.634,58.464,50.47,58.605 M67.228,59.34
			c-0.064-0.058-0.098-0.134-0.098-0.229c0-0.104,0.04-0.202,0.123-0.292c0.079-0.091,0.194-0.136,0.345-0.136
			c0.108,0,0.197,0.029,0.268,0.087c0.066,0.058,0.101,0.133,0.101,0.225c0,0.112-0.039,0.211-0.12,0.299
			c-0.081,0.087-0.202,0.13-0.357,0.13C67.381,59.424,67.295,59.394,67.228,59.34 M67.021,58.599
			c-0.171,0.14-0.258,0.315-0.258,0.524c0,0.174,0.065,0.313,0.19,0.422c0.127,0.106,0.297,0.161,0.51,0.161
			c0.246,0,0.451-0.069,0.618-0.205c0.164-0.137,0.249-0.301,0.249-0.495c0-0.12-0.031-0.224-0.092-0.318
			c-0.058-0.094-0.145-0.166-0.252-0.219c-0.11-0.05-0.229-0.077-0.363-0.077C67.393,58.392,67.193,58.464,67.021,58.599
			 M8.226,57.982l-0.273,1.691h0.389l0.227-1.39h0.693l-0.227,1.39h0.389l0.277-1.691H8.226z M45.646,58.277
			c0.144,0,0.242,0.006,0.289,0.017c0.047,0.013,0.084,0.03,0.108,0.058c0.026,0.027,0.037,0.061,0.037,0.101
			c0,0.069-0.03,0.123-0.093,0.157c-0.063,0.037-0.198,0.055-0.405,0.056L45.646,58.277z M45.314,57.982l-0.277,1.691h0.383
			l0.117-0.713c0.26-0.003,0.445-0.023,0.558-0.063c0.109-0.037,0.199-0.097,0.266-0.181c0.068-0.082,0.1-0.177,0.1-0.28
			c0-0.093-0.028-0.175-0.085-0.243c-0.056-0.07-0.14-0.125-0.249-0.164c-0.09-0.031-0.24-0.047-0.456-0.047H45.314z M59.022,57.982
			l-0.118,0.295h0.301l-0.229,1.396h0.373l0.275-1.691H59.022z M60.658,58.664c-0.054-0.046-0.082-0.101-0.082-0.169
			c0-0.073,0.029-0.136,0.089-0.187c0.058-0.051,0.132-0.077,0.218-0.077c0.082,0,0.152,0.024,0.207,0.071
			c0.057,0.044,0.086,0.103,0.086,0.169c0,0.072-0.031,0.132-0.092,0.184c-0.062,0.052-0.135,0.075-0.22,0.075
			C60.782,58.73,60.712,58.709,60.658,58.664 M60.398,58.101c-0.128,0.107-0.195,0.24-0.195,0.4c0,0.142,0.057,0.262,0.166,0.355
			c0.109,0.097,0.244,0.145,0.398,0.145c0.04,0,0.084-0.005,0.134-0.016l-0.488,0.568l0.292,0.162l0.421-0.496
			c0.091-0.107,0.18-0.226,0.264-0.354c0.049-0.073,0.087-0.149,0.114-0.228c0.018-0.057,0.027-0.113,0.027-0.172
			c0-0.148-0.061-0.272-0.181-0.373c-0.123-0.102-0.274-0.152-0.458-0.152C60.694,57.941,60.527,57.995,60.398,58.101
			 M62.241,58.664c-0.057-0.046-0.082-0.101-0.082-0.169c0-0.073,0.029-0.136,0.087-0.187c0.06-0.051,0.131-0.077,0.22-0.077
			c0.082,0,0.152,0.024,0.207,0.071c0.055,0.044,0.083,0.103,0.083,0.169c0,0.072-0.029,0.132-0.091,0.184
			c-0.062,0.052-0.134,0.075-0.22,0.075C62.361,58.73,62.294,58.709,62.241,58.664 M61.979,58.101c-0.13,0.107-0.194,0.24-0.194,0.4
			c0,0.142,0.054,0.262,0.167,0.355c0.109,0.097,0.241,0.145,0.398,0.145c0.037,0,0.081-0.005,0.131-0.016l-0.487,0.568l0.292,0.162
			l0.423-0.496c0.09-0.107,0.179-0.226,0.263-0.354c0.047-0.073,0.084-0.149,0.112-0.228c0.018-0.057,0.03-0.113,0.03-0.172
			c0-0.148-0.062-0.272-0.184-0.373c-0.12-0.102-0.272-0.152-0.455-0.152C62.273,57.941,62.109,57.995,61.979,58.101 M63.72,58.008
			c-0.091,0.043-0.164,0.108-0.22,0.194c-0.054,0.085-0.086,0.185-0.089,0.299h0.369c0.018-0.099,0.048-0.169,0.091-0.208
			c0.043-0.041,0.098-0.062,0.162-0.062c0.062,0,0.111,0.019,0.154,0.054c0.042,0.034,0.063,0.079,0.063,0.131
			c0,0.048-0.014,0.096-0.041,0.144c-0.032,0.065-0.12,0.166-0.258,0.3c-0.106,0.101-0.33,0.298-0.681,0.593l-0.031,0.221h1.252
			l0.045-0.287h-0.683c0.337-0.289,0.549-0.496,0.635-0.621c0.086-0.127,0.131-0.242,0.131-0.351c0-0.133-0.055-0.247-0.165-0.338
			c-0.112-0.091-0.251-0.136-0.419-0.136C63.917,57.941,63.812,57.963,63.72,58.008"/>
	</defs>
	<clipPath id="SVGID_14_">
		<use xlink:href="#SVGID_13_"  overflow="visible"/>
	</clipPath>
	
		<linearGradient id="SVGID_15_" gradientUnits="userSpaceOnUse" x1="-431.8647" y1="250.8813" x2="-430.8648" y2="250.8813" gradientTransform="matrix(63.9429 0 0 -63.9429 27622.6367 16101.1143)">
		<stop  offset="0" style="stop-color:#FBC926"/>
		<stop  offset="0.0056" style="stop-color:#FBC926"/>
		<stop  offset="0.099" style="stop-color:#FDDD6A"/>
		<stop  offset="0.2038" style="stop-color:#FEF3B0"/>
		<stop  offset="0.2528" style="stop-color:#FFFBCC"/>
		<stop  offset="0.5955" style="stop-color:#C3922E"/>
		<stop  offset="0.6762" style="stop-color:#CEA345"/>
		<stop  offset="0.8444" style="stop-color:#E9CF7E"/>
		<stop  offset="0.8708" style="stop-color:#EED688"/>
		<stop  offset="0.9108" style="stop-color:#F2DF99"/>
		<stop  offset="0.99" style="stop-color:#FDF8C6"/>
		<stop  offset="1" style="stop-color:#FFFBCC"/>
	</linearGradient>
	<rect x="7.953" y="57.941" clip-path="url(#SVGID_14_)" fill="url(#SVGID_15_)" width="63.941" height="2.191"/>
</g>
</svg>
